<?xml version="1.0" encoding="UTF-8"?>
<svg id="Layer_1" data-name="Layer 1" xmlns="http://www.w3.org/2000/svg" viewBox="0 0 70.06 32.97">
  <defs>
    <style>
      .cls-1 {
        opacity: .27;
      }

      .cls-1, .cls-2 {
        fill: #777c84;
      }

      .cls-2 {
        opacity: .18;
      }

      .cls-3 {
        fill: #818589;
      }
    </style>
  </defs>
  <rect class="cls-1" y="0" width="70.06" height="32.97" rx="2.65" ry="2.65"/>
  <path class="cls-2" d="M67.4,0H2.65C1.19,0,0,1.19,0,2.65v27.66C0,31.78,1.19,32.97,2.65,32.97h64.75c1.47,0,2.65-1.19,2.65-2.65V2.65c0-1.47-1.19-2.65-2.65-2.65ZM69.06,30.32c0,.91-.74,1.65-1.65,1.65H2.65c-.91,0-1.65-.74-1.65-1.65V2.65c0-.91.74-1.65,1.65-1.65h64.75c.91,0,1.65.74,1.65,1.65v27.66Z"/>
  <g>
    <path class="cls-3" d="M25.04,19.05h-4.09l-.86,2.46h-1.91l3.99-10.56h1.65l4,10.56h-1.92l-.86-2.46ZM21.46,17.57h3.06l-1.53-4.38-1.53,4.38Z"/>
    <path class="cls-3" d="M35.37,17.66c0,1.21-.28,2.18-.83,2.91-.55.72-1.29,1.08-2.22,1.08-.86,0-1.55-.28-2.07-.85v3.72h-1.76v-10.87h1.62l.07.8c.52-.63,1.22-.94,2.11-.94.96,0,1.71.36,2.25,1.07.54.71.82,1.7.82,2.97v.11ZM33.62,17.51c0-.78-.16-1.41-.47-1.87-.31-.46-.76-.69-1.34-.69-.72,0-1.24.3-1.55.89v3.48c.32.61.84.91,1.57.91.56,0,1-.23,1.32-.68.32-.45.47-1.14.47-2.06Z"/>
    <path class="cls-3" d="M43.74,17.66c0,1.21-.28,2.18-.83,2.91-.55.72-1.29,1.08-2.22,1.08-.86,0-1.55-.28-2.07-.85v3.72h-1.76v-10.87h1.62l.07.8c.52-.63,1.22-.94,2.11-.94.96,0,1.71.36,2.25,1.07.54.71.82,1.7.82,2.97v.11ZM41.98,17.51c0-.78-.16-1.41-.47-1.87-.31-.46-.76-.69-1.34-.69-.72,0-1.24.3-1.55.89v3.48c.32.61.84.91,1.57.91.56,0,1-.23,1.32-.68.32-.45.47-1.14.47-2.06Z"/>
    <path class="cls-3" d="M49.63,19.37c0-.31-.13-.55-.39-.72-.26-.16-.69-.31-1.29-.43-.6-.13-1.1-.29-1.5-.48-.88-.43-1.32-1.04-1.32-1.85,0-.68.29-1.24.86-1.7.57-.45,1.3-.68,2.18-.68.94,0,1.7.23,2.27.7.58.46.87,1.07.87,1.81h-1.76c0-.34-.13-.62-.38-.84-.25-.23-.58-.34-1-.34-.39,0-.7.09-.95.27-.25.18-.37.42-.37.72,0,.27.11.48.34.63.23.15.69.3,1.38.45s1.23.33,1.63.54c.39.21.69.46.88.76.19.29.29.65.29,1.07,0,.71-.29,1.28-.88,1.72-.58.44-1.35.66-2.3.66-.64,0-1.22-.12-1.72-.35-.5-.23-.9-.55-1.18-.96s-.42-.84-.42-1.31h1.71c.02.42.18.74.47.96.29.22.67.34,1.15.34s.82-.09,1.06-.26c.24-.18.36-.41.36-.69Z"/>
  </g>
</svg>