<?xml version="1.0" encoding="UTF-8"?>
<svg id="Layer_1" data-name="Layer 1" xmlns="http://www.w3.org/2000/svg" viewBox="0 0 71.99 32.97">
  <defs>
    <style>
      .cls-1 {
        opacity: .27;
      }

      .cls-1, .cls-2 {
        fill: #777c84;
      }

      .cls-2 {
        opacity: .18;
      }

      .cls-3 {
        fill: #818589;
      }
    </style>
  </defs>
  <rect class="cls-1" x="0" width="71.99" height="32.97" rx="2.65" ry="2.65"/>
  <g>
    <path class="cls-3" d="M26.76,12.42h-3.29v9.08h-1.82v-9.08h-3.26v-1.48h8.38v1.48Z"/>
    <path class="cls-3" d="M26.14,17.51c0-.77.15-1.46.46-2.08.3-.62.73-1.09,1.28-1.42s1.18-.5,1.9-.5c1.06,0,1.92.34,2.58,1.02.66.68,1.02,1.59,1.07,2.71v.41c0,.77-.14,1.46-.44,2.07-.3.61-.72,1.08-1.28,1.42s-1.19.5-1.92.5c-1.11,0-1.99-.37-2.66-1.11-.67-.74-1-1.72-1-2.95v-.09ZM27.9,17.66c0,.81.17,1.44.5,1.9s.8.69,1.39.69,1.06-.23,1.39-.7c.33-.46.5-1.14.5-2.04,0-.79-.17-1.42-.51-1.89-.34-.46-.8-.7-1.39-.7s-1.03.23-1.37.69c-.34.46-.51,1.14-.51,2.05Z"/>
    <path class="cls-3" d="M34.6,17.51c0-.77.15-1.46.46-2.08.3-.62.73-1.09,1.28-1.42s1.18-.5,1.9-.5c1.06,0,1.92.34,2.58,1.02.66.68,1.02,1.59,1.07,2.71v.41c0,.77-.14,1.46-.44,2.07-.3.61-.72,1.08-1.28,1.42s-1.19.5-1.92.5c-1.11,0-1.99-.37-2.66-1.11-.67-.74-1-1.72-1-2.95v-.09ZM36.36,17.66c0,.81.17,1.44.5,1.9s.8.69,1.39.69,1.06-.23,1.39-.7c.33-.46.5-1.14.5-2.04,0-.79-.17-1.42-.51-1.89-.34-.46-.8-.7-1.39-.7s-1.03.23-1.37.69c-.34.46-.51,1.14-.51,2.05Z"/>
    <path class="cls-3" d="M45.26,21.51h-1.76v-11.14h1.76v11.14Z"/>
    <path class="cls-3" d="M51.58,19.37c0-.31-.13-.55-.39-.72-.26-.16-.69-.31-1.29-.43-.6-.13-1.1-.29-1.5-.48-.88-.43-1.32-1.04-1.32-1.85,0-.68.29-1.24.86-1.7.57-.45,1.3-.68,2.18-.68.94,0,1.7.23,2.27.7.58.46.87,1.07.87,1.81h-1.76c0-.34-.13-.62-.38-.84-.25-.23-.58-.34-1-.34-.39,0-.7.09-.95.27-.25.18-.37.42-.37.72,0,.27.11.48.34.63.23.15.69.3,1.38.45s1.23.33,1.63.54c.39.21.69.46.88.76.19.29.29.65.29,1.07,0,.71-.29,1.28-.88,1.72-.58.44-1.35.66-2.3.66-.64,0-1.22-.12-1.72-.35-.5-.23-.9-.55-1.18-.96s-.42-.84-.42-1.31h1.71c.02.42.18.74.47.96.29.22.67.34,1.15.34s.82-.09,1.06-.26c.24-.18.36-.41.36-.69Z"/>
  </g>
  <path class="cls-2" d="M69.34,0H2.65C1.19,0,0,1.19,0,2.65v27.66c0,1.47,1.19,2.65,2.65,2.65h66.69c1.47,0,2.65-1.19,2.65-2.65V2.65C71.99,1.19,70.81,0,69.34,0ZM70.99,30.32c0,.91-.74,1.65-1.65,1.65H2.65c-.91,0-1.65-.74-1.65-1.65V2.65c0-.91.74-1.65,1.65-1.65h66.69c.91,0,1.65.74,1.65,1.65v27.66Z"/>
</svg>