<?xml version="1.0" encoding="UTF-8"?>
<svg id="Layer_1" data-name="Layer 1" xmlns="http://www.w3.org/2000/svg" viewBox="0 0 68.02 32.97">
  <defs>
    <style>
      .cls-1 {
        fill: #fff;
      }

      .cls-2 {
        fill: #3771db;
      }
    </style>
  </defs>
  <rect class="cls-2" y="0" width="68.02" height="32.97" rx="2.65" ry="2.65"/>
  <path class="cls-2" d="M65.37,0H2.65C1.19,0,0,1.19,0,2.65v27.66C0,31.78,1.19,32.97,2.65,32.97h62.71c1.47,0,2.65-1.19,2.65-2.65V2.65c0-1.47-1.19-2.65-2.65-2.65ZM67.02,30.32c0,.91-.74,1.65-1.65,1.65H2.65c-.91,0-1.65-.74-1.65-1.65V2.65c0-.91.74-1.65,1.65-1.65h62.71c.91,0,1.65.74,1.65,1.65v27.66Z"/>
  <g>
    <path class="cls-1" d="M23.01,17.44h-2.04v4.06h-1.84v-10.56h3.71c1.22,0,2.16.27,2.82.82.66.55.99,1.34.99,2.38,0,.71-.17,1.3-.51,1.78-.34.48-.82.84-1.43,1.1l2.37,4.4v.09h-1.97l-2.12-4.06ZM20.96,15.96h1.89c.62,0,1.1-.16,1.45-.47.35-.31.52-.74.52-1.28s-.16-1-.48-1.31-.8-.47-1.44-.48h-1.94v3.54Z"/>
    <path class="cls-1" d="M36.13,10.94v7.06c0,1.12-.36,2.01-1.08,2.67-.72.66-1.67.98-2.87.98s-2.17-.32-2.88-.97-1.07-1.54-1.07-2.69v-7.05h1.83v7.07c0,.71.18,1.25.54,1.62.36.37.88.56,1.58.56,1.41,0,2.12-.75,2.12-2.23v-7.01h1.83Z"/>
    <path class="cls-1" d="M40.47,10.94l3.05,8.1,3.04-8.1h2.37v10.56h-1.83v-3.48l.18-4.66-3.12,8.14h-1.31l-3.11-8.13.18,4.65v3.48h-1.83v-10.56h2.38Z"/>
  </g>
</svg>