<?xml version="1.0" encoding="UTF-8"?>
<svg id="Layer_1" data-name="Layer 1" xmlns="http://www.w3.org/2000/svg" viewBox="0 0 67.76 32.97">
  <defs>
    <style>
      .cls-1 {
        fill: #fff;
      }

      .cls-2 {
        fill: #3771db;
      }
    </style>
  </defs>
  <rect class="cls-2" x="0" y="0" width="67.76" height="32.97" rx="2.65" ry="2.65"/>
  <g>
    <path class="cls-1" d="M25.04,19.05h-4.09l-.86,2.46h-1.91l3.99-10.56h1.65l4,10.56h-1.92l-.86-2.46ZM21.46,17.57h3.06l-1.53-4.38-1.53,4.38Z"/>
    <path class="cls-1" d="M37.02,18.89l1.62-7.95h1.82l-2.44,10.56h-1.76l-2.01-7.71-2.05,7.71h-1.76l-2.44-10.56h1.82l1.64,7.94,2.02-7.94h1.54l2,7.95Z"/>
    <path class="cls-1" d="M47.33,18.78c0-.46-.16-.82-.49-1.07-.33-.25-.92-.51-1.77-.76-.85-.26-1.53-.54-2.03-.86-.96-.6-1.44-1.39-1.44-2.37,0-.85.35-1.55,1.04-2.1.69-.55,1.59-.83,2.7-.83.73,0,1.39.13,1.97.41.58.27,1.03.66,1.36,1.16.33.5.49,1.05.49,1.67h-1.83c0-.55-.17-.98-.52-1.3-.35-.31-.84-.47-1.48-.47-.6,0-1.07.13-1.4.38-.33.26-.5.61-.5,1.07,0,.39.18.71.54.97.36.26.95.51,1.77.75s1.48.52,1.98.83c.5.31.86.67,1.1,1.07.23.4.35.88.35,1.42,0,.88-.34,1.58-1.01,2.1s-1.59.78-2.75.78c-.76,0-1.47-.14-2.11-.42s-1.14-.67-1.49-1.17-.53-1.08-.53-1.74h1.83c0,.6.2,1.06.6,1.39.4.33.96.49,1.7.49.64,0,1.12-.13,1.44-.39s.48-.6.48-1.03Z"/>
  </g>
  <path class="cls-2" d="M65.1,0H2.65C1.19,0,0,1.19,0,2.65v27.66c0,1.47,1.19,2.65,2.65,2.65h62.45c1.47,0,2.65-1.19,2.65-2.65V2.65c0-1.47-1.19-2.65-2.65-2.65ZM66.76,30.32c0,.91-.74,1.65-1.65,1.65H2.65c-.91,0-1.65-.74-1.65-1.65V2.65c0-.91.74-1.65,1.65-1.65h62.45c.91,0,1.65.74,1.65,1.65v27.66Z"/>
</svg>