<?xml version="1.0" encoding="UTF-8"?>
<svg id="Layer_1" data-name="Layer 1" xmlns="http://www.w3.org/2000/svg" viewBox="0 0 66.87 32.97">
  <defs>
    <style>
      .cls-1 {
        opacity: .27;
      }

      .cls-1, .cls-2 {
        fill: #777c84;
      }

      .cls-2 {
        opacity: .18;
      }

      .cls-3 {
        fill: #818589;
      }
    </style>
  </defs>
  <rect class="cls-1" width="66.87" height="32.97" rx="2.65" ry="2.65"/>
  <g>
    <path class="cls-3" d="M21.07,21.5h-1.83v-10.56h1.83v10.56Z"/>
    <path class="cls-3" d="M24.79,13.65l.05.91c.58-.7,1.34-1.05,2.29-1.05,1.63,0,2.47.94,2.5,2.81v5.19h-1.76v-5.09c0-.5-.11-.87-.32-1.11s-.57-.36-1.06-.36c-.71,0-1.24.32-1.59.97v5.59h-1.76v-7.85h1.66Z"/>
    <path class="cls-3" d="M32.03,21.5v-6.54h-1.2v-1.31h1.2v-.72c0-.87.24-1.54.73-2.02.48-.47,1.16-.71,2.03-.71.31,0,.64.04.99.13l-.04,1.38c-.19-.04-.42-.06-.67-.06-.84,0-1.26.43-1.26,1.3v.7h1.6v1.31h-1.6v6.54h-1.76Z"/>
    <path class="cls-3" d="M40.79,15.26c-.23-.04-.47-.06-.72-.06-.81,0-1.35.31-1.63.93v5.37h-1.76v-7.85h1.68l.04.88c.43-.68,1.02-1.02,1.77-1.02.25,0,.46.03.62.1v1.65Z"/>
    <path class="cls-3" d="M46.38,21.5c-.08-.15-.15-.39-.2-.73-.56.58-1.25.88-2.06.88s-1.43-.23-1.93-.67c-.5-.45-.75-1.01-.75-1.67,0-.84.31-1.48.93-1.93.62-.45,1.51-.67,2.67-.67h1.08v-.51c0-.41-.11-.73-.34-.98s-.57-.37-1.04-.37c-.4,0-.73.1-.99.3-.26.2-.38.46-.38.77h-1.76c0-.43.14-.83.43-1.21.29-.38.67-.67,1.16-.88s1.04-.32,1.64-.32c.92,0,1.65.23,2.2.69s.83,1.11.84,1.95v3.54c0,.71.1,1.27.3,1.69v.12h-1.8ZM44.44,20.23c.35,0,.68-.08.98-.25.31-.17.54-.4.69-.68v-1.48h-.95c-.65,0-1.14.11-1.47.34s-.49.55-.49.96c0,.34.11.61.34.81.23.2.53.3.9.3Z"/>
  </g>
  <path class="cls-2" d="M64.21,0H2.65C1.19,0,0,1.19,0,2.65v27.66c0,1.47,1.19,2.65,2.65,2.65h61.56c1.47,0,2.65-1.19,2.65-2.65V2.65C66.87,1.19,65.68,0,64.21,0ZM65.87,30.32c0,.91-.74,1.65-1.65,1.65H2.65c-.91,0-1.65-.74-1.65-1.65V2.65c0-.91.74-1.65,1.65-1.65h61.56c.91,0,1.65.74,1.65,1.65v27.66Z"/>
</svg>