<?xml version="1.0" encoding="UTF-8"?>
<svg id="Layer_1" data-name="Layer 1" xmlns="http://www.w3.org/2000/svg" viewBox="0 0 70.58 32.97">
  <defs>
    <style>
      .cls-1 {
        opacity: .27;
      }

      .cls-1, .cls-2 {
        fill: #777c84;
      }

      .cls-2 {
        opacity: .18;
      }

      .cls-3 {
        fill: #818589;
      }
    </style>
  </defs>
  <rect class="cls-1" x="0" y="0" width="70.58" height="32.97" rx="2.65" ry="2.65"/>
  <g>
    <path class="cls-3" d="M24.65,18.78c0-.46-.16-.82-.49-1.07-.33-.25-.92-.51-1.77-.76-.85-.26-1.53-.54-2.03-.86-.96-.6-1.44-1.39-1.44-2.37,0-.85.35-1.55,1.04-2.1.69-.55,1.6-.83,2.7-.83.73,0,1.39.13,1.97.41.57.27,1.03.66,1.36,1.16.33.5.49,1.05.49,1.67h-1.83c0-.55-.17-.98-.52-1.3-.35-.31-.84-.47-1.48-.47-.6,0-1.07.13-1.4.38-.33.26-.5.61-.5,1.07,0,.39.18.71.54.97s.95.51,1.77.75,1.48.52,1.98.83c.5.31.86.67,1.1,1.07.23.4.35.88.35,1.42,0,.88-.34,1.58-1.01,2.1-.67.52-1.59.78-2.75.78-.76,0-1.47-.14-2.11-.42s-1.14-.67-1.49-1.17-.53-1.08-.53-1.74h1.84c0,.6.2,1.06.59,1.39.4.33.97.49,1.7.49.64,0,1.12-.13,1.44-.39.32-.26.48-.6.48-1.03Z"/>
    <path class="cls-3" d="M29.93,20.04h4.8v1.47h-6.63v-10.56h1.83v9.1Z"/>
    <path class="cls-3" d="M44.1,16.5c0,1.04-.18,1.94-.54,2.72-.36.78-.87,1.38-1.53,1.8s-1.43.63-2.3.63-1.62-.21-2.29-.63-1.19-1.01-1.55-1.79c-.37-.77-.55-1.67-.55-2.68v-.59c0-1.03.18-1.94.55-2.73s.88-1.39,1.54-1.81c.67-.42,1.43-.63,2.29-.63s1.62.21,2.29.62c.67.41,1.18,1.01,1.54,1.78.36.78.55,1.68.55,2.71v.59ZM42.27,15.95c0-1.17-.22-2.07-.66-2.69s-1.07-.94-1.88-.94-1.41.31-1.86.93c-.45.62-.68,1.5-.69,2.64v.61c0,1.16.23,2.06.68,2.69s1.08.95,1.88.95,1.44-.31,1.88-.93.66-1.52.66-2.71v-.55Z"/>
    <path class="cls-3" d="M50.16,19.37c0-.31-.13-.55-.39-.72-.26-.16-.69-.31-1.29-.43-.6-.13-1.1-.29-1.5-.48-.88-.43-1.32-1.04-1.32-1.85,0-.68.29-1.24.86-1.7.57-.45,1.3-.68,2.18-.68.94,0,1.7.23,2.27.7.58.46.87,1.07.87,1.81h-1.76c0-.34-.13-.62-.38-.84-.25-.23-.58-.34-1-.34-.39,0-.7.09-.95.27-.25.18-.37.42-.37.72,0,.27.11.48.34.63.23.15.69.3,1.38.45s1.23.33,1.63.54c.39.21.69.46.88.76.19.29.29.65.29,1.07,0,.71-.29,1.28-.88,1.72-.58.44-1.35.66-2.3.66-.64,0-1.22-.12-1.72-.35-.5-.23-.9-.55-1.18-.96s-.42-.84-.42-1.31h1.71c.02.42.18.74.47.96.29.22.67.34,1.15.34s.82-.09,1.06-.26c.24-.18.36-.41.36-.69Z"/>
  </g>
  <path class="cls-2" d="M67.92,0H2.65C1.19,0,0,1.19,0,2.65v27.66c0,1.47,1.19,2.65,2.65,2.65h65.27c1.47,0,2.65-1.19,2.65-2.65V2.65c0-1.47-1.19-2.65-2.65-2.65ZM69.58,30.32c0,.91-.74,1.65-1.65,1.65H2.65c-.91,0-1.65-.74-1.65-1.65V2.65c0-.91.74-1.65,1.65-1.65h65.27c.91,0,1.65.74,1.65,1.65v27.66Z"/>
</svg>