<?xml version="1.0" encoding="UTF-8"?>
<svg id="Layer_1" data-name="Layer 1" xmlns="http://www.w3.org/2000/svg" viewBox="0 0 85.67 32.97">
  <defs>
    <style>
      .cls-1 {
        opacity: .27;
      }

      .cls-1, .cls-2 {
        fill: #777c84;
      }

      .cls-2 {
        opacity: .18;
      }

      .cls-3 {
        fill: #818589;
      }
    </style>
  </defs>
  <rect class="cls-1" x="0" y="0" width="85.67" height="32.97" rx="2.65" ry="2.65"/>
  <g>
    <path class="cls-3" d="M25.3,16.79h-4.34v3.25h5.07v1.47h-6.91v-10.56h6.86v1.48h-5.02v2.92h4.34v1.45Z"/>
    <path class="cls-3" d="M30.18,16.24l1.5-2.58h1.96l-2.4,3.87,2.48,3.98h-1.94l-1.57-2.68-1.56,2.68h-1.96l2.48-3.98-2.39-3.87h1.94l1.47,2.58Z"/>
    <path class="cls-3" d="M41.71,17.66c0,1.21-.28,2.18-.83,2.91-.55.72-1.29,1.08-2.22,1.08-.86,0-1.55-.28-2.07-.85v3.72h-1.76v-10.87h1.62l.07.8c.52-.63,1.22-.94,2.11-.94.96,0,1.71.36,2.25,1.07.54.71.82,1.7.82,2.97v.11ZM39.95,17.51c0-.78-.16-1.41-.47-1.87-.31-.46-.76-.69-1.34-.69-.72,0-1.24.3-1.55.89v3.48c.32.61.84.91,1.57.91.56,0,1-.23,1.32-.68.32-.45.47-1.14.47-2.06Z"/>
    <path class="cls-3" d="M45.07,21.5h-1.76v-11.14h1.76v11.14Z"/>
    <path class="cls-3" d="M46.66,17.51c0-.77.15-1.46.46-2.08.3-.62.73-1.09,1.28-1.42s1.18-.5,1.9-.5c1.06,0,1.92.34,2.58,1.02.66.68,1.02,1.59,1.07,2.71v.41c0,.77-.14,1.46-.44,2.07-.3.61-.72,1.08-1.28,1.42s-1.19.5-1.92.5c-1.11,0-1.99-.37-2.66-1.11-.67-.74-1-1.72-1-2.95v-.09ZM48.42,17.66c0,.81.17,1.44.5,1.9s.8.69,1.39.69,1.06-.23,1.39-.7c.33-.46.5-1.14.5-2.04,0-.79-.17-1.42-.51-1.89-.34-.46-.8-.7-1.39-.7s-1.03.23-1.37.69c-.34.46-.51,1.14-.51,2.05Z"/>
    <path class="cls-3" d="M59.56,15.27c-.23-.04-.47-.06-.72-.06-.81,0-1.35.31-1.63.93v5.37h-1.76v-7.85h1.68l.04.88c.43-.68,1.02-1.02,1.77-1.02.25,0,.46.03.62.1v1.65Z"/>
    <path class="cls-3" d="M63.99,21.65c-1.12,0-2.02-.35-2.72-1.06-.69-.7-1.04-1.64-1.04-2.81v-.22c0-.78.15-1.48.45-2.1.3-.62.73-1.1,1.27-1.44.55-.34,1.16-.52,1.83-.52,1.07,0,1.89.34,2.48,1.02.58.68.87,1.65.87,2.89v.71h-5.13c.05.65.27,1.16.65,1.54.38.38.86.57,1.43.57.81,0,1.47-.33,1.97-.98l.95.91c-.31.47-.73.83-1.26,1.09-.53.26-1.11.39-1.77.39ZM63.78,14.92c-.48,0-.87.17-1.17.51-.3.34-.49.81-.57,1.41h3.36v-.13c-.04-.59-.2-1.04-.47-1.34-.28-.3-.66-.45-1.15-.45Z"/>
  </g>
  <path class="cls-2" d="M83.01,0H2.65C1.19,0,0,1.19,0,2.65v27.66c0,1.47,1.19,2.65,2.65,2.65h80.36c1.47,0,2.65-1.19,2.65-2.65V2.65c0-1.47-1.19-2.65-2.65-2.65ZM84.67,30.32c0,.91-.74,1.65-1.66,1.65H2.65c-.91,0-1.65-.74-1.65-1.65V2.65c0-.91.74-1.65,1.65-1.65h80.36c.91,0,1.66.74,1.66,1.65v27.66Z"/>
</svg>