<?xml version="1.0" encoding="UTF-8"?>
<svg id="Layer_1" data-name="Layer 1" xmlns="http://www.w3.org/2000/svg" viewBox="0 0 68.37 32.97">
  <defs>
    <style>
      .cls-1 {
        opacity: .27;
      }

      .cls-1, .cls-2 {
        fill: #777c84;
      }

      .cls-2 {
        opacity: .18;
      }

      .cls-3 {
        fill: #818589;
      }
    </style>
  </defs>
  <rect class="cls-1" x="0" y="0" width="68.37" height="32.97" rx="2.65" ry="2.65"/>
  <g>
    <path class="cls-3" d="M21.51,10.94l3.05,8.1,3.04-8.1h2.37v10.56h-1.83v-3.48l.18-4.66-3.12,8.14h-1.31l-3.11-8.13.18,4.65v3.48h-1.83v-10.56h2.38Z"/>
    <path class="cls-3" d="M31.97,11.62c0-.27.09-.5.26-.67.17-.18.42-.27.74-.27s.57.09.74.27c.17.18.26.4.26.67s-.09.49-.26.66c-.17.18-.42.26-.74.26s-.56-.09-.74-.26c-.17-.18-.26-.4-.26-.66ZM33.84,21.51h-1.76v-7.85h1.76v7.85Z"/>
    <path class="cls-3" d="M40.16,19.37c0-.31-.13-.55-.39-.72-.26-.16-.69-.31-1.29-.43-.6-.13-1.1-.29-1.5-.48-.88-.43-1.32-1.04-1.32-1.85,0-.68.29-1.24.86-1.7.57-.45,1.3-.68,2.18-.68.94,0,1.7.23,2.27.7.58.46.87,1.07.87,1.81h-1.76c0-.34-.13-.62-.38-.84-.25-.23-.58-.34-1-.34-.39,0-.7.09-.95.27-.25.18-.37.42-.37.72,0,.27.11.48.34.63.23.15.69.3,1.38.45s1.23.33,1.63.54c.39.21.69.46.88.76.19.29.29.65.29,1.07,0,.71-.29,1.28-.88,1.72-.58.44-1.35.66-2.3.66-.64,0-1.22-.12-1.72-.35-.5-.23-.9-.55-1.18-.96s-.42-.84-.42-1.31h1.71c.02.42.18.74.47.96.29.22.67.34,1.15.34s.82-.09,1.06-.26c.24-.18.36-.41.36-.69Z"/>
    <path class="cls-3" d="M46.65,20.24c.44,0,.81-.13,1.1-.38.29-.26.45-.57.46-.95h1.66c-.02.49-.17.94-.46,1.37-.29.42-.67.76-1.16,1-.49.25-1.02.37-1.58.37-1.1,0-1.97-.36-2.61-1.07-.64-.71-.96-1.69-.96-2.95v-.18c0-1.2.32-2.15.96-2.87.64-.72,1.51-1.08,2.61-1.08.93,0,1.69.27,2.28.82.59.54.9,1.26.92,2.14h-1.66c-.02-.45-.17-.82-.46-1.11-.29-.29-.65-.43-1.1-.43-.57,0-1.01.21-1.32.62-.31.41-.47,1.04-.47,1.88v.28c0,.85.15,1.49.46,1.9.31.42.75.63,1.33.63Z"/>
  </g>
  <path class="cls-2" d="M65.71,0H2.65C1.19,0,0,1.19,0,2.65v27.66c0,1.47,1.19,2.65,2.65,2.65h63.06c1.47,0,2.65-1.19,2.65-2.65V2.65C68.37,1.19,67.18,0,65.71,0ZM67.37,30.32c0,.91-.74,1.65-1.65,1.65H2.65c-.91,0-1.65-.74-1.65-1.65V2.65c0-.91.74-1.65,1.65-1.65h63.06c.91,0,1.65.74,1.65,1.65v27.66Z"/>
</svg>