<?xml version="1.0" encoding="UTF-8"?>
<svg id="Layer_1" data-name="Layer 1" xmlns="http://www.w3.org/2000/svg" viewBox="0 0 115.78 32.97">
  <defs>
    <style>
      .cls-1 {
        fill: #fff;
      }

      .cls-2 {
        fill: #3771db;
      }
    </style>
  </defs>
  <rect class="cls-2" y="0" width="115.78" height="32.97" rx="2.65" ry="2.65"/>
  <g>
    <path class="cls-1" d="M19.13,21.5v-10.56h3.12c.93,0,1.76.21,2.49.62.72.42,1.28,1.01,1.68,1.77.4.76.6,1.64.6,2.63v.53c0,1-.2,1.88-.6,2.64-.4.76-.97,1.34-1.71,1.76-.74.41-1.58.62-2.54.62h-3.04ZM20.96,12.42v7.62h1.2c.96,0,1.7-.3,2.22-.9.51-.6.78-1.47.79-2.59v-.59c0-1.15-.25-2.02-.75-2.63s-1.22-.91-2.17-.91h-1.28Z"/>
    <path class="cls-1" d="M33.36,21.5c-.08-.15-.15-.39-.2-.73-.56.58-1.25.88-2.06.88s-1.43-.23-1.93-.67c-.5-.45-.75-1.01-.75-1.67,0-.84.31-1.48.93-1.93.62-.45,1.51-.67,2.67-.67h1.08v-.51c0-.41-.11-.73-.34-.98s-.57-.37-1.04-.37c-.4,0-.73.1-.99.3-.26.2-.38.46-.38.77h-1.76c0-.43.14-.83.43-1.21.29-.38.67-.67,1.16-.88s1.04-.32,1.64-.32c.92,0,1.65.23,2.2.69s.83,1.11.84,1.95v3.54c0,.71.1,1.27.3,1.69v.12h-1.8ZM31.42,20.24c.35,0,.68-.08.98-.25.31-.17.54-.4.69-.68v-1.48h-.95c-.65,0-1.14.11-1.47.34s-.49.55-.49.96c0,.34.11.61.34.81.23.2.53.3.9.3Z"/>
    <path class="cls-1" d="M41.1,19.37c0-.31-.13-.55-.39-.72-.26-.16-.69-.31-1.29-.43-.6-.13-1.1-.29-1.5-.48-.88-.43-1.32-1.04-1.32-1.85,0-.68.29-1.24.86-1.7.57-.45,1.3-.68,2.18-.68.94,0,1.7.23,2.27.7.58.46.87,1.07.87,1.81h-1.76c0-.34-.13-.62-.38-.84-.25-.23-.58-.34-1-.34-.39,0-.7.09-.95.27-.25.18-.37.42-.37.72,0,.27.11.48.34.63.23.15.69.3,1.38.45s1.23.33,1.63.54c.39.21.69.46.88.76.19.29.29.65.29,1.07,0,.71-.29,1.28-.88,1.72-.58.44-1.35.66-2.3.66-.64,0-1.22-.12-1.72-.35-.5-.23-.9-.55-1.18-.96s-.42-.84-.42-1.31h1.71c.02.42.18.74.47.96.29.22.67.34,1.15.34s.82-.09,1.06-.26c.24-.18.36-.41.36-.69Z"/>
    <path class="cls-1" d="M46.11,14.51c.58-.67,1.3-1,2.18-1,1.67,0,2.52.96,2.55,2.87v5.13h-1.76v-5.06c0-.54-.12-.92-.35-1.15-.23-.22-.58-.34-1.03-.34-.71,0-1.23.31-1.58.94v5.61h-1.76v-11.14h1.76v4.15Z"/>
    <path class="cls-1" d="M59.51,17.66c0,1.22-.27,2.19-.82,2.91s-1.29,1.08-2.25,1.08-1.63-.33-2.15-.99l-.09.85h-1.6v-11.14h1.76v4.05c.51-.6,1.19-.9,2.05-.9.96,0,1.71.36,2.26,1.07.55.71.82,1.71.82,2.98v.1ZM57.75,17.51c0-.85-.15-1.49-.45-1.92s-.74-.64-1.31-.64c-.76,0-1.3.33-1.61,1v3.24c.31.68.86,1.02,1.62,1.02.55,0,.98-.21,1.28-.62s.46-1.03.46-1.86v-.22Z"/>
    <path class="cls-1" d="M60.66,17.51c0-.77.15-1.46.46-2.08.3-.62.73-1.09,1.28-1.42s1.18-.5,1.9-.5c1.06,0,1.92.34,2.58,1.02.66.68,1.02,1.59,1.07,2.71v.41c0,.77-.14,1.46-.44,2.07-.3.61-.72,1.08-1.28,1.42s-1.19.5-1.92.5c-1.11,0-1.99-.37-2.66-1.11-.67-.74-1-1.72-1-2.95v-.09ZM62.42,17.66c0,.81.17,1.44.5,1.9s.8.69,1.39.69,1.06-.23,1.39-.7c.33-.46.5-1.14.5-2.04,0-.79-.17-1.42-.51-1.89-.34-.46-.8-.7-1.39-.7s-1.03.23-1.37.69c-.34.46-.51,1.14-.51,2.05Z"/>
    <path class="cls-1" d="M74.14,21.5c-.08-.15-.15-.39-.2-.73-.56.58-1.25.88-2.06.88s-1.43-.23-1.93-.67c-.5-.45-.75-1.01-.75-1.67,0-.84.31-1.48.93-1.93.62-.45,1.51-.67,2.67-.67h1.08v-.51c0-.41-.11-.73-.34-.98s-.57-.37-1.04-.37c-.4,0-.73.1-.99.3-.26.2-.38.46-.38.77h-1.76c0-.43.14-.83.43-1.21.29-.38.67-.67,1.16-.88s1.04-.32,1.64-.32c.92,0,1.65.23,2.2.69s.83,1.11.84,1.95v3.54c0,.71.1,1.27.3,1.69v.12h-1.8ZM72.2,20.24c.35,0,.68-.08.98-.25.31-.17.54-.4.69-.68v-1.48h-.95c-.65,0-1.14.11-1.47.34s-.49.55-.49.96c0,.34.11.61.34.81.23.2.53.3.9.3Z"/>
    <path class="cls-1" d="M81.59,15.27c-.23-.04-.47-.06-.72-.06-.81,0-1.35.31-1.63.93v5.37h-1.76v-7.85h1.68l.04.88c.43-.68,1.02-1.02,1.77-1.02.25,0,.46.03.62.1v1.65Z"/>
    <path class="cls-1" d="M82.24,17.52c0-1.21.28-2.18.84-2.91.56-.73,1.31-1.1,2.26-1.1.83,0,1.5.29,2.02.87v-4.02h1.76v11.14h-1.6l-.09-.81c-.53.64-1.23.96-2.11.96s-1.66-.37-2.23-1.11-.85-1.75-.85-3.02ZM84,17.67c0,.8.15,1.42.46,1.87.31.45.74.67,1.31.67.72,0,1.25-.32,1.58-.96v-3.35c-.32-.63-.85-.94-1.57-.94-.57,0-1.01.23-1.32.68s-.46,1.13-.46,2.04Z"/>
    <path class="cls-1" d="M95.36,19.37c0-.31-.13-.55-.39-.72-.26-.16-.69-.31-1.29-.43-.6-.13-1.1-.29-1.5-.48-.88-.43-1.32-1.04-1.32-1.85,0-.68.29-1.24.86-1.7.57-.45,1.3-.68,2.18-.68.94,0,1.7.23,2.27.7.58.46.87,1.07.87,1.81h-1.76c0-.34-.13-.62-.38-.84-.25-.23-.58-.34-1-.34-.39,0-.7.09-.95.27-.25.18-.37.42-.37.72,0,.27.11.48.34.63.23.15.69.3,1.38.45s1.23.33,1.63.54c.39.21.69.46.88.76.19.29.29.65.29,1.07,0,.71-.29,1.28-.88,1.72-.58.44-1.35.66-2.3.66-.64,0-1.22-.12-1.72-.35-.5-.23-.9-.55-1.18-.96s-.42-.84-.42-1.31h1.71c.02.42.18.74.47.96.29.22.67.34,1.15.34s.82-.09,1.06-.26c.24-.18.36-.41.36-.69Z"/>
  </g>
  <path class="cls-2" d="M113.13,0H2.65C1.19,0,0,1.19,0,2.65v27.66C0,31.78,1.19,32.97,2.65,32.97h110.47c1.47,0,2.65-1.19,2.65-2.65V2.65c0-1.47-1.19-2.65-2.65-2.65ZM114.78,30.32c0,.91-.74,1.65-1.66,1.65H2.66c-.91,0-1.66-.74-1.66-1.65V2.65c0-.91.74-1.65,1.66-1.65h110.47c.91,0,1.66.74,1.66,1.65v27.66Z"/>
</svg>