<?xml version="1.0" encoding="UTF-8"?>
<svg id="Layer_1" data-name="Layer 1" xmlns="http://www.w3.org/2000/svg" viewBox="0 0 66.79 32.97">
  <defs>
    <style>
      .cls-1 {
        fill: #e0216e;
      }

      .cls-2 {
        fill: #fff;
      }
    </style>
  </defs>
  <rect class="cls-1" y="0" width="66.79" height="32.97" rx="2.65" ry="2.65"/>
  <g>
    <path class="cls-2" d="M27.51,21.5h-1.83v-4.69h-4.72v4.69h-1.84v-10.56h1.84v4.4h4.72v-4.4h1.83v10.56Z"/>
    <path class="cls-2" d="M32.97,21.65c-1.12,0-2.02-.35-2.72-1.06-.69-.7-1.04-1.64-1.04-2.81v-.22c0-.78.15-1.48.45-2.1.3-.62.73-1.1,1.27-1.44.55-.34,1.16-.52,1.83-.52,1.07,0,1.89.34,2.48,1.02.58.68.87,1.65.87,2.89v.71h-5.13c.05.65.27,1.16.65,1.54.38.38.86.57,1.43.57.81,0,1.47-.33,1.97-.98l.95.91c-.31.47-.73.83-1.26,1.09-.53.26-1.11.39-1.77.39ZM32.76,14.92c-.48,0-.87.17-1.17.51-.3.34-.49.81-.57,1.41h3.36v-.13c-.04-.59-.2-1.04-.47-1.34-.28-.3-.66-.45-1.15-.45Z"/>
    <path class="cls-2" d="M39.36,21.5h-1.76v-11.14h1.76v11.14Z"/>
    <path class="cls-2" d="M48.15,17.66c0,1.21-.28,2.18-.83,2.91-.55.72-1.29,1.08-2.22,1.08-.86,0-1.55-.28-2.07-.85v3.72h-1.76v-10.87h1.62l.07.8c.52-.63,1.22-.94,2.11-.94.96,0,1.71.36,2.25,1.07.54.71.82,1.7.82,2.97v.11ZM46.4,17.51c0-.78-.16-1.41-.47-1.87-.31-.46-.76-.69-1.34-.69-.72,0-1.24.3-1.55.89v3.48c.32.61.84.91,1.57.91.56,0,1-.23,1.32-.68.32-.45.47-1.14.47-2.06Z"/>
  </g>
  <path class="cls-1" d="M64.14,0H2.65C1.19,0,0,1.19,0,2.65v27.66C0,31.78,1.19,32.97,2.65,32.97h61.49c1.47,0,2.65-1.19,2.65-2.65V2.65c0-1.47-1.19-2.65-2.65-2.65ZM65.79,30.32c0,.91-.74,1.65-1.65,1.65H2.65c-.91,0-1.66-.74-1.66-1.65V2.65c0-.91.74-1.65,1.66-1.65h61.49c.91,0,1.65.74,1.65,1.65v27.66Z"/>
</svg>