<?xml version="1.0" encoding="UTF-8"?>
<svg id="Layer_1" data-name="Layer 1" xmlns="http://www.w3.org/2000/svg" viewBox="0 0 889 864">
  <defs>
    <style>
      .cls-1 {
        font-family: Skia-Bold, Skia;
        font-size: 174.9px;
        font-weight: 700;
        letter-spacing: .08em;
      }

      .cls-1, .cls-2 {
        fill: #fefefe;
        font-variation-settings: 'wght' 1, 'wdth' 1;
      }

      .cls-3 {
        fill: #f47a2c;
      }

      .cls-2 {
        font-family: Skia-Regular, Skia;
        font-size: 113.86px;
        letter-spacing: .08em;
      }
    </style>
  </defs>
  <g>
    <path class="cls-3" d="M201.98,275.67c3.46,2.38,6.78,4.33,10.54,6.24,1.88.94,3.74,1.79,5.69,2.6,4.71,1.91,8.62,3.15,13.77,3.54,4.49.2,7.64-.35,11.82-1.87,3.2-1.25,5.94-2.71,8.95-4.28,2.19-1.14,4.03-2.06,6.41-2.8,1.52-.35,2.56-.31,4.07.06,2.18.6,3.9,1.63,5.74,2.85,2.53,1.74,4.89,3.69,7.3,5.58,3.31,2.57,6.19,4.71,10.07,6.52,3.74,1.63,6.72,2.26,10.84,2.2,3.36-.15,5.91-.72,9.07-1.79.35-.13.7-.25,1.05-.38,5.8-2.34,11.12-5.69,17-7.54.1-.04.24-.07.34-.09,4.51-1.14,15.58-.36,16.73-1.43-1.11-3.36-13.87-5.23-17.84-4.93-.08,0-.42.04-.48.04-7.21.89-12.15,3.45-18.89,5.28-.27.06-.56.15-.83.21-2.13.47-3.87.7-6.05.56-2.22-.2-3.71-.69-5.64-1.74-2.64-1.6-4.9-3.63-7.16-5.67-2.47-2.25-4.85-4.49-7.48-6.59-3.08-2.36-5.68-3.99-9.4-5.35-4.01-1.3-7.14-1.57-11.32-.91-3.85.75-6.74,1.98-10.24,3.59-2.47,1.14-4.96,2.38-7.55,3.25-1.95.61-3.25.8-5.3.62-3.01-.39-5.67-1.46-8.4-2.66-1.54-.71-3.03-1.46-4.51-2.26-2.99-1.65-5.66-3.31-8.4-5.3-3.38-2.54-6.75-5.36-8.78-9.01-1.23-2.52-1.33-4.44-.72-7.13,0-.01.08-.31.09-.35.87-2.89,2.2-5.02,4.17-7.35,4.99-5.41,10.23-7.61,17.37-9.67.31-.2,4.7-1.13,5.37-1.26,6.79-1.27,12.65-1.76,19.56-1.44,6.62.47,11.78,1.43,17.53,4.69.66.4,1.29.81,1.92,1.27,3.08,2.3,5.67,5.02,8.4,7.66,3.73,3.58,6.71,6.22,11.82,7.98,2.86.81,5.11.96,8.07.56,2.44-.39,4.3-1,6.53-1.99,2.53-1.19,4.54-2.44,6.8-4.02.75-.53,1.5-1.08,2.25-1.64,2.41-1.79,5.64-4.48,8.51-5.49,1.3-.4,2.38-.52,3.75-.51,1.79.06,3.13.38,4.79,1.01.54.1,2.8,1.34,3.35,1.67,3.58,2.17,6.52,4.62,9.59,7.39,2.36,2.18,4.51,4.3,7.09,6.24,1.58,1.15,2.9,1.95,4.74,2.68,2.23.82,4.01,1.1,6.39.89,2.26-.29,3.85-.89,5.82-1.95.4-.12,2.13-1.33,2.55-1.64.65-.48,1.25-.96,1.86-1.47,2.54-2.18,4.71-4.45,7.02-6.84,3.27-3.15,6.03-6.24,10.39-8.1.04-.02.2-.08.22-.09,5.16-2.02,10.8-2.5,16.3-2.98.7-.07,1.41-.13,2.12-.2,2.11-.2,17.48-1.19,17.55-2.86.06-1.87-15.43-3.41-17.55-3.6-.73-.06-1.46-.12-2.19-.17-6.8-.42-12.76-.57-19.43,1.08-.07.01-.28.08-.36.11-6.45,2.04-10.11,4.88-15.06,9.12-2.23,1.92-4.4,3.87-6.8,5.61-.37.29-2.19,1.39-2.67,1.6-.24.1-.79.24-1.01.11-.52-.31-.96-.66-1.43-1.05-2.01-1.82-3.7-3.8-5.6-5.69-3.62-3.59-7.07-6.86-11.39-9.73-1.77-1.16-3.4-2.11-5.33-2.99-3.42-1.49-6.22-2.24-9.96-2.58-3.34-.21-5.94.01-9.17.82-5.81,1.7-9.02,4.18-13.79,7.51-.66.46-1.32.91-1.99,1.36-1.4.91-2.73,1.72-4.28,2.39-.64.25-1.3.5-1.98.57-.14,0-.38.03-.5-.06-.94-.29-4.3-3.43-4.91-4.14-3.33-3.38-6.13-6.35-9.96-9.32-.79-.69-2.25-1.6-3.18-2.18-8.51-5.02-15.8-6.75-25.7-7.51-8.62-.47-15.79.09-24.25,1.67-2.28.45-4.46.97-6.7,1.58-10.95,3.19-18.41,6.88-25.94,15.25-3.64,4.42-5.83,8.3-7.35,13.74-.03.13-.15.68-.19.75-1.39,6.73-.75,11.85,2.45,18.02,3.61,6.09,8.04,9.99,13.87,14.13Z"/>
    <path class="cls-3" d="M674.45,251.86c-.41.72-.83,1.4-1.3,2.08-2.57,3.63-5.14,6.01-8.96,8.47-2.58,1.58-4.81,2.59-7.71,3.55-2.21.69-4.18,1.12-6.49,1.45-4.38.63-8.29.65-12.71.48-5.71-.26-11.44-.96-17.1-1.65-2.06-.25-15.81-2.21-16.33-.44-.55,1.93,12.59,6.61,14.55,7.3,5.69,1.98,11.55,3.67,17.49,4.84,5.25,1,9.76,1.54,15.15,1.49,3.16-.13,5.89-.45,8.98-1.1,4.27-.95,7.6-2.11,11.48-4.01,6.06-3.2,10.17-6.48,14.48-11.63.82-1.03,1.57-2.06,2.3-3.16,2.55-4,4.03-7.37,5.09-11.95,1.15-5.96.91-10.57-1.1-16.34-.98-2.56-2.06-4.56-3.63-6.84-1.89-2.64-3.71-4.59-6.2-6.73-4.86-3.96-9.24-6.26-15.36-8.06-6.1-1.6-11.04-1.92-17.32-1.3-.12,0-.72.08-.88.11-5.58.79-9.86,2.04-14.83,4.6-9.18,5.32-12.54,10.68-18.29,18.83-.45.64-.91,1.28-1.37,1.91-1.6,2.18-3.19,4.23-5.06,6.22-.98,1.03-2.63,2.69-3.98,3.31-.01,0,.04.01-.08.01-.39,0-.9-.17-1.26-.29-2.21-.81-4.49-2.25-6.48-3.46-.1-.05-.28-.17-.38-.24-3.04-1.87-5.91-3.63-9.14-5.22-4.38-2.08-7.88-3.23-12.84-3.36-5.07.13-8.57,1.36-12.86,3.81-2.7,1.63-4.89,3.3-7.28,5.31-.57.49-1.14.97-1.7,1.47-2.07,1.81-4.19,3.8-6.5,5.31-.61.38-1.18.7-1.86.94-.41.13-.68.19-1.12.17-.76.15-3.74-1.34-4.4-1.71-.99-.56-1.91-1.13-2.84-1.76-3.61-2.44-6.89-5.11-10.25-7.84-3.37-2.75-6.37-5.15-10.12-7.44-5.21-3.04-9.33-4.48-15.32-5.63-2.84-.42-5.53-.63-8.4-.77-5.91-.24-11.9-.02-17.8.44-2.12.17-16.43,1.35-16.44,3.32-.02,1.85,14.14,3.46,16.24,3.74,5.56.75,11.21,1.46,16.7,2.56,2.37.48,4.61,1.01,6.91,1.75,4.2,1.26,6.91,2.53,10.36,5.09,2.83,2.2,5.27,4.62,7.82,7.09,3.5,3.39,6.87,6.53,10.74,9.57,1.02.87,2.59,1.89,3.74,2.65,3.33,2.1,6.11,3.49,10.05,4.35,2.97.52,5.25.48,8.19-.12,2.53-.59,4.4-1.35,6.65-2.58,3.55-2.02,6.14-4.17,9.26-6.67.5-.41,1.03-.82,1.54-1.22,1.65-1.26,3.24-2.44,5.08-3.45.98-.5,2.29-1.15,3.44-1.08,1.47.17,3.13.96,4.41,1.61,2.57,1.36,4.95,2.93,7.38,4.49.13.08.27.19.41.26,3.36,2.15,6.2,3.88,9.99,5.36,2.34.85,4.24,1.31,6.74,1.52,2.91.17,5.11-.11,7.88-1,5.01-1.86,8.14-4.45,11.74-8.16,2.43-2.59,4.48-5.16,6.57-7.99.52-.71,1.03-1.42,1.54-2.14,3.42-4.88,6.5-10.17,11.82-13.35,2.64-1.42,5.11-2.12,8.1-2.6.1-.03.45-.06.52-.08,3.59-.43,6.49-.35,10.02.45,3.39.89,5.86,2.08,8.62,4.14,1.35,1.07,2.36,2.04,3.41,3.37.79,1.03,1.35,1.92,1.88,3.09,1.12,2.71,1.3,4.92.94,7.79-.43,2.68-1.18,4.68-2.49,7.08Z"/>
    <path class="cls-3" d="M200.31,181.5c5.26,4.77,10.47,7.63,17.04,10.34,6.87,2.67,13.7,4.51,20.92,5.97,8.65,1.74,17.38,2.92,26.16,3.87,8.26.9,16.55,1.6,24.84,2.19,24.3,1.74,48.64,2.82,73,3.4,18.96.46,37.93.6,56.89.52,11.04-.04,22.06-.2,33.09-.43,29.02-.58,58.03-1.67,86.99-3.57,11.63-.76,23.26-1.68,34.87-2.74,10.74-.98,21.46-2.09,32.16-3.4,16.34-2,32.62-4.44,48.8-7.39,4.88-.89,39.96-6.46,39.19-11.3-.75-4.68-35.94-.6-40.87-.21-16.24,1.31-32.47,2.67-48.72,3.75-10.6.7-21.2,1.35-31.82,1.82-11.51.51-23.02.84-34.54,1.12-28.73.73-57.49.94-86.23.79-10.93-.06-21.86-.19-32.79-.36-18.74-.31-37.48-.76-56.21-1.51-23.95-.97-47.87-2.39-71.75-4.37-7.98-.65-15.95-1.38-23.9-2.3-7.97-.93-15.88-2.04-23.72-3.68-5.6-1.17-10.98-2.58-16.29-4.68-3.26-1.36-6.26-2.81-8.88-5.2-1.66-1.64-2.47-2.98-3.16-5.19-.74-2.8-.68-5.21-.31-8.08.7-4.46,2.05-8.42,3.92-12.58,1.9-4.24,4.18-8.2,6.7-12.13,15.7-23.16,33.76-37.72,58.55-51.72,1.07-.6,2.15-1.17,3.22-1.73,27.73-14.49,59.65-23.8,90.73-29.1,1.79-.31,3.57-.61,5.36-.88,26.33-3.91,51.58-5.41,78.21-4.43,10.38.38,20.7,1.22,30.99,2.6,17.43,2.35,33.86,5.91,50.58,11.15,24.96,7.82,47.23,18.41,68.79,32.58,16.84,11.07,32.2,23.23,46.2,37.45,11.93,12.11,15.34,8.94,6.79-5.02-32.13-52.44-108.13-85.89-169.09-96.08-10.95-1.83-21.92-3.08-33-3.77-28.33-1.78-55.04-.71-83.15,2.97-1.92.26-3.85.55-5.76.85-33.89,5.22-68.56,14.99-98.85,30.48-1.23.63-2.44,1.27-3.66,1.92-28.94,16.12-49.7,32.95-67.99,59.84-3.22,5.01-6.09,10.03-8.49,15.4-2.83,6.3-4.71,12.2-5.74,18.99-.8,6.36-.64,11.58,1.02,17.78,2.05,6.6,4.88,11.19,9.89,16.08Z"/>
    <path class="cls-3" d="M673.15,425.19c-5.53-3.86-12.31-5.55-19.07-6.04-8.53-.61-17.61.63-25.92,2.38-60.18,12.67-120.33,20.83-182.08,20.83s-121.9-8.16-182.07-20.83c-8.31-1.75-17.39-2.99-25.92-2.38-6.77.49-13.54,2.18-19.08,6.04-5.27,3.67-8.61,8.67-10.03,14.69-.69,2.96-.89,5.98-.64,8.99,1.02,12.7,6.68,23.37,15.84,32.48,7.97,7.91,17.97,13.98,28.1,19.11,49.93,25.24,137.86,31.24,193.8,31.24s143.87-6.01,193.8-31.24c10.13-5.13,20.13-11.2,28.1-19.11,9.17-9.11,14.82-19.78,15.84-32.48.24-3.01.05-6.04-.64-8.99-1.41-6.03-4.76-11.02-10.03-14.69ZM651.52,466.5c-6.22,6.18-14.4,10.98-22.32,14.97-46.3,23.41-131.24,28.65-183.12,28.65s-136.82-5.24-183.12-28.65c-7.91-3.99-16.1-8.8-22.31-14.97-5.44-5.41-9.01-11.69-9.62-19.23-.06-.88-.08-1.87.12-2.74.19-.81.59-1.47,1.31-1.97,1.88-1.31,5.07-1.74,7.33-1.9,6.27-.45,13.22.59,19.32,1.88,61.78,13.01,123.58,21.41,186.98,21.41s125.19-8.4,186.98-21.41c6.12-1.29,13.05-2.34,19.32-1.88,2.25.16,5.45.59,7.33,1.9.71.5,1.12,1.16,1.31,1.97.2.86.19,1.86.12,2.74-.6,7.54-4.17,13.82-9.61,19.23Z"/>
    <path class="cls-3" d="M711.44,321.54c-19.68-28.66-75.69-21.87-108.38-18.4-33.66,3.36-67.38,5.12-101.2,6.3-15.15.52-30.27.91-45.42,1.17-14.65.22-29.26.33-43.91.32-27.35-.05-54.72-.54-82.05-1.62-10.83-.44-21.63-.96-32.46-1.58-9.76-.66-19.47-1.4-29.21-2.25-15.74-1.38-31.44-3.06-47.13-4.73-3.83-.41-37.21-4.31-37.6-2.33-.43,2.15,32.53,8.94,36.25,9.7l5.04,1c-11.67,2.85-22.83,7.61-31.72,14.49-28.62,22.15-19.94,66.86,7.21,81.34,22.87,12.19,37.11-9.54,55.43-21.22,33.12-21.13,65.03-25.79,104.41-24.83,41.83,1.01,89.22,6.73,128.27,21.6,8.5,3.24,16.84,6.84,25.17,10.46,2.42,1.05,21.44,9.66,22.42,8.04,1.06-1.76-16.61-12.85-18.85-14.24-34.9-21.61-65.24-31.18-106.86-37.56-33.21-5.08-75.94-8.57-109.08-1.68-19.95,4.15-39.55,12.48-56.4,23.11-9.98,6.45-25.34,21.45-31.19,21.87-3.93.28-9.18-4.44-11.5-7.07-11.21-12.71-12.64-35.15,2.06-47.35,23.17-19.24,74.5-15.47,103.77-13.87,3.75.2,12.85.57,22.39.77,27.06,2.13,54.24,3.38,81.39,4.05,14.79.34,29.51.52,44.3.55,15.31.01,30.56-.13,45.86-.43,32.68-.67,65.68-1.98,98.23-4.83,5.19-.46,10.35-.96,15.52-1.53,6.89-.43,14.11-.86,21.89-1.31,15.02-.84,55.06-3.97,59.57,17.25,3.31,15.51-15.71,34.33-27.47,41.63-18.71,11.6-42.8,14.16-64.06,7.3-14.19-4.58-28.44-8.64-41.87-14.94-35.7-16.72-67.43-27.25-106.68-31.7-30.52-3.45-30.84-.86-1.46,6.96,40.43,10.76,62.45,18.25,100.68,38.26,35,18.3,62,31.03,102.99,18.46,21.4-6.55,39.87-20.63,50.63-39.44,7.33-13.33,10.11-28.45,1-41.71Z"/>
    <path class="cls-3" d="M385.6,152.14c-.04-.5-.12-1.07-.28-1.67-.16-.64-.42-1.29-.75-2.03-.36-.7-.81-1.45-1.43-2.18-.22-.28-.5-.58-.75-.81.42-1.65-.5-3.06-.5-3.06-1.57-.1-2.58.5-2.96.75-.06-.04-.12-.06-.18-.06-.26-.12-.54-.22-.81-.28s-.58-.16-.87-.26c-.28-.06-.6-.12-.91-.18-.06,0-.1-.04-.16-.04-.73-2.22-2.74-3.14-2.74-3.14-2.2,1.39-2.62,3.36-2.62,3.36,0,0,0,.04-.04.12l-.36.1c-.16.06-.36.12-.5.2-.16.06-.36.12-.5.2-.32.12-.66.32-.97.48-.32.2-.64.38-.91.58-.06-.06-.1-.06-.1-.06-3.06-1.17-5.78.26-5.78.26-.18,3.26,1.27,5.3,1.55,5.68-.06.2-.12.42-.2.6-.22.73-.38,1.49-.5,2.28-.04.1-.04.22-.04.36-2.8,1.37-3.65,4.21-3.65,4.21,2.36,2.72,5.08,2.88,5.08,2.88h0c.36.64.75,1.19,1.19,1.77.2.22.38.44.6.66-.85,2.46.12,4.49.12,4.49,2.62.1,4.35-1.13,4.71-1.43.26.1.54.16.79.26.79.22,1.65.32,2.46.38h1.03c1.23,1.77,3.42,2.03,3.42,2.03,1.55-1.65,1.65-3.26,1.65-3.6h0v-.1h0v-.06c.32-.22.64-.48.91-.73.64-.58,1.17-1.19,1.61-1.89.04-.06.1-.12.12-.18,1.75.1,2.96-1.07,2.96-1.07-.28-1.83-1.33-2.72-1.55-2.88h-.06s-.04,0-.04-.04c0-.1.04-.22.04-.32,0-.18.04-.38.04-.6v-.75c0-.06,0-.1-.04-.16l-.04-.16-.04-.16c-.04-.18-.06-.42-.12-.6-.18-.79-.5-1.51-.87-2.2-.42-.66-.91-1.27-1.49-1.77s-1.19-.91-1.87-1.19-1.35-.5-2.05-.58c-.36-.04-.7-.06-1.03-.06h-.16s-.06,0-.04,0h-.36c-.18,0-.36.04-.54.06-.7.12-1.35.38-1.93.73s-1.07.79-1.49,1.27c-.42.48-.73,1.03-.95,1.57s-.36,1.13-.38,1.71v.81c.04.28.06.58.16.81.16.54.38,1.01.7,1.43s.66.73,1.03,1.01c.38.26.79.44,1.19.58s.79.16,1.19.16h.54c.06,0,.1-.04.12-.04s.1-.04.12-.04c.1-.04.16-.04.26-.06l.48-.18c.16-.06.28-.16.42-.26.04-.04.06-.06.1-.06.12-.1.16-.28.06-.42s-.26-.16-.38-.06c-.04,0-.06.04-.1.06-.1.06-.22.1-.36.16l-.38.1c-.06,0-.12.04-.18.04h-.42s-.04,0,0,0h-.18c-.28-.04-.6-.12-.87-.26-.22-.16-.5-.36-.75-.58s-.48-.5-.64-.79c-.16-.28-.28-.64-.36-1.01-.04-.18-.04-.38-.04-.54v-.16h0v-.12c0-.1.04-.18.04-.28.12-.79.54-1.55,1.13-2.13.16-.16.32-.28.48-.38.16-.12.36-.22.54-.32.18-.1.38-.16.6-.22.22-.06.42-.1.64-.1h.54s0,0,0,0h.12c.22.04.48.06.7.1.44.1.87.26,1.33.5.81.48,1.51,1.17,1.97,2.03.22.44.38.87.44,1.35.04.12.04.26.04.36v.75c0,.12-.04.26-.04.38-.04.12-.04.26-.06.38l-.1.38c-.06.26-.16.5-.26.75-.18.48-.44.95-.75,1.39-.64.85-1.49,1.55-2.42,1.99-.48.22-1.01.38-1.51.48-.26.04-.54.06-.79.06h-.38s0,0,0,0h-.04c-.16,0-.28,0-.42-.04-.58-.04-1.13-.12-1.67-.28s-1.07-.38-1.59-.64c-1.01-.54-1.89-1.27-2.58-2.15-.36-.44-.66-.91-.91-1.43-.26-.5-.44-1.01-.6-1.55-.16-.54-.26-1.07-.28-1.65v-.64h0v-.26c0-.28.04-.54.06-.81s.1-.58.12-.85.12-.58.2-.81c.16-.54.36-1.07.58-1.55.48-.97,1.07-1.87,1.77-2.56.2-.2.38-.36.58-.5.2-.16.38-.32.6-.44s.42-.26.64-.38c.1-.06.22-.12.32-.16.06-.04.12-.06.16-.06s.12-.06.16-.06c.22-.1.48-.2.7-.26.06-.04.12-.04.18-.06s.12-.04.18-.06l.38-.1c.06,0,.12-.04.18-.04s.12-.04.18-.04.12-.04.18-.04h.18c.06,0,.12-.04.18-.04s.12,0,.22-.04c.06,0,.16-.04.22-.04h.64s.04,0,0,0h.95c.48.04.95.06,1.39.16.87.16,1.75.44,2.5.81s1.45.81,2.05,1.33l.1.1.1.1c.06.06.12.12.22.2s.12.12.18.2l.18.2c.26.28.48.54.7.81.42.54.75,1.11,1.03,1.61.04.04.04.06.06.1s.04.06.06.1l.1.2.1.2c.04.06.06.12.06.2.1.26.18.48.26.7.12.36.22.66.28.95.04.1.12.18.26.16.12,0,.22-.1.22-.22.14-.38.12-.72.08-1.13h0Z"/>
    <path class="cls-3" d="M300.6,123.14c-.04-.5-.12-1.07-.28-1.67-.16-.64-.42-1.29-.75-2.03-.36-.7-.81-1.45-1.43-2.18-.22-.28-.5-.58-.75-.81.42-1.65-.5-3.06-.5-3.06-1.57-.1-2.58.5-2.96.75-.06-.04-.12-.06-.18-.06-.26-.12-.54-.22-.81-.28s-.58-.16-.87-.26c-.28-.06-.6-.12-.91-.18-.06,0-.1-.04-.16-.04-.73-2.22-2.74-3.14-2.74-3.14-2.2,1.39-2.62,3.36-2.62,3.36,0,0,0,.04-.04.12l-.36.1c-.16.06-.36.12-.5.2-.16.06-.36.12-.5.2-.32.12-.66.32-.97.48-.32.2-.64.38-.91.58-.06-.06-.1-.06-.1-.06-3.06-1.17-5.78.26-5.78.26-.18,3.26,1.27,5.3,1.55,5.68-.06.2-.12.42-.2.6-.22.73-.38,1.49-.5,2.28-.04.1-.04.22-.04.36-2.8,1.37-3.65,4.21-3.65,4.21,2.36,2.72,5.08,2.88,5.08,2.88h0c.36.64.75,1.19,1.19,1.77.2.22.38.44.6.66-.85,2.46.12,4.49.12,4.49,2.62.1,4.35-1.13,4.71-1.43.26.1.54.16.79.26.79.22,1.65.32,2.46.38h1.03c1.23,1.77,3.42,2.03,3.42,2.03,1.55-1.65,1.65-3.26,1.65-3.6h0v-.1h0v-.06c.32-.22.64-.48.91-.73.64-.58,1.17-1.19,1.61-1.89.04-.06.1-.12.12-.18,1.75.1,2.96-1.07,2.96-1.07-.28-1.83-1.33-2.72-1.55-2.88h-.06s-.04,0-.04-.04c0-.1.04-.22.04-.32,0-.18.04-.38.04-.6v-.75c0-.06,0-.1-.04-.16l-.04-.16-.04-.16c-.04-.18-.06-.42-.12-.6-.18-.79-.5-1.51-.87-2.2-.42-.66-.91-1.27-1.49-1.77s-1.19-.91-1.87-1.19-1.35-.5-2.05-.58c-.36-.04-.7-.06-1.03-.06h-.16s-.06,0-.04,0h-.36c-.18,0-.36.04-.54.06-.7.12-1.35.38-1.93.73s-1.07.79-1.49,1.27c-.42.48-.73,1.03-.95,1.57s-.36,1.13-.38,1.71v.81c.04.28.06.58.16.81.16.54.38,1.01.7,1.43s.66.73,1.03,1.01c.38.26.79.44,1.19.58s.79.16,1.19.16h.54c.06,0,.1-.04.12-.04s.1-.04.12-.04c.1-.04.16-.04.26-.06l.48-.18c.16-.06.28-.16.42-.26.04-.04.06-.06.1-.06.12-.1.16-.28.06-.42s-.26-.16-.38-.06c-.04,0-.06.04-.1.06-.1.06-.22.1-.36.16l-.38.1c-.06,0-.12.04-.18.04h-.42s-.04,0,0,0h-.18c-.28-.04-.6-.12-.87-.26-.22-.16-.5-.36-.75-.58s-.48-.5-.64-.79c-.16-.28-.28-.64-.36-1.01-.04-.18-.04-.38-.04-.54v-.16h0v-.12c0-.1.04-.18.04-.28.12-.79.54-1.55,1.13-2.13.16-.16.32-.28.48-.38.16-.12.36-.22.54-.32.18-.1.38-.16.6-.22.22-.06.42-.1.64-.1h.54s0,0,0,0h.12c.22.04.48.06.7.1.44.1.87.26,1.33.5.81.48,1.51,1.17,1.97,2.03.22.44.38.87.44,1.35.04.12.04.26.04.36v.75c0,.12-.04.26-.04.38-.04.12-.04.26-.06.38l-.1.38c-.06.26-.16.5-.26.75-.18.48-.44.95-.75,1.39-.64.85-1.49,1.55-2.42,1.99-.48.22-1.01.38-1.51.48-.26.04-.54.06-.79.06h-.38s0,0,0,0h-.04c-.16,0-.28,0-.42-.04-.58-.04-1.13-.12-1.67-.28s-1.07-.38-1.59-.64c-1.01-.54-1.89-1.27-2.58-2.15-.36-.44-.66-.91-.91-1.43-.26-.5-.44-1.01-.6-1.55-.16-.54-.26-1.07-.28-1.65v-.64h0v-.26c0-.28.04-.54.06-.81s.1-.58.12-.85.12-.58.2-.81c.16-.54.36-1.07.58-1.55.48-.97,1.07-1.87,1.77-2.56.2-.2.38-.36.58-.5.2-.16.38-.32.6-.44s.42-.26.64-.38c.1-.06.22-.12.32-.16.06-.04.12-.06.16-.06s.12-.06.16-.06c.22-.1.48-.2.7-.26.06-.04.12-.04.18-.06s.12-.04.18-.06l.38-.1c.06,0,.12-.04.18-.04s.12-.04.18-.04.12-.04.18-.04h.18c.06,0,.12-.04.18-.04s.12,0,.22-.04c.06,0,.16-.04.22-.04h.64s.04,0,0,0h.95c.48.04.95.06,1.39.16.87.16,1.75.44,2.5.81s1.45.81,2.05,1.33l.1.1.1.1c.06.06.12.12.22.2s.12.12.18.2l.18.2c.26.28.48.54.7.81.42.54.75,1.11,1.03,1.61.04.04.04.06.06.1s.04.06.06.1l.1.2.1.2c.04.06.06.12.06.2.1.26.18.48.26.7.12.36.22.66.28.95.04.1.12.18.26.16.12,0,.22-.1.22-.22.14-.38.12-.72.08-1.13h0Z"/>
    <path class="cls-3" d="M362.6,80.14c-.04-.5-.12-1.07-.28-1.67-.16-.64-.42-1.29-.75-2.03-.36-.7-.81-1.45-1.43-2.18-.22-.28-.5-.58-.75-.81.42-1.65-.5-3.06-.5-3.06-1.57-.1-2.58.5-2.96.75-.06-.04-.12-.06-.18-.06-.26-.12-.54-.22-.81-.28s-.58-.16-.87-.26c-.28-.06-.6-.12-.91-.18-.06,0-.1-.04-.16-.04-.73-2.22-2.74-3.14-2.74-3.14-2.2,1.39-2.62,3.36-2.62,3.36,0,0,0,.04-.04.12l-.36.1c-.16.06-.36.12-.5.2-.16.06-.36.12-.5.2-.32.12-.66.32-.97.48-.32.2-.64.38-.91.58-.06-.06-.1-.06-.1-.06-3.06-1.17-5.78.26-5.78.26-.18,3.26,1.27,5.3,1.55,5.68-.06.2-.12.42-.2.6-.22.73-.38,1.49-.5,2.28-.04.1-.04.22-.04.36-2.8,1.37-3.65,4.21-3.65,4.21,2.36,2.72,5.08,2.88,5.08,2.88h0c.36.64.75,1.19,1.19,1.77.2.22.38.44.6.66-.85,2.46.12,4.49.12,4.49,2.62.1,4.35-1.13,4.71-1.43.26.1.54.16.79.26.79.22,1.65.32,2.46.38h1.03c1.23,1.77,3.42,2.03,3.42,2.03,1.55-1.65,1.65-3.26,1.65-3.6h0v-.1h0v-.06c.32-.22.64-.48.91-.73.64-.58,1.17-1.19,1.61-1.89.04-.06.1-.12.12-.18,1.75.1,2.96-1.07,2.96-1.07-.28-1.83-1.33-2.72-1.55-2.88h-.06s-.04,0-.04-.04c0-.1.04-.22.04-.32,0-.18.04-.38.04-.6v-.75c0-.06,0-.1-.04-.16l-.04-.16-.04-.16c-.04-.18-.06-.42-.12-.6-.18-.79-.5-1.51-.87-2.2-.42-.66-.91-1.27-1.49-1.77s-1.19-.91-1.87-1.19-1.35-.5-2.05-.58c-.36-.04-.7-.06-1.03-.06h-.16s-.06,0-.04,0h-.36c-.18,0-.36.04-.54.06-.7.12-1.35.38-1.93.73s-1.07.79-1.49,1.27c-.42.48-.73,1.03-.95,1.57s-.36,1.13-.38,1.71v.81c.04.28.06.58.16.81.16.54.38,1.01.7,1.43s.66.73,1.03,1.01c.38.26.79.44,1.19.58s.79.16,1.19.16h.54c.06,0,.1-.04.12-.04s.1-.04.12-.04c.1-.04.16-.04.26-.06l.48-.18c.16-.06.28-.16.42-.26.04-.04.06-.06.1-.06.12-.1.16-.28.06-.42s-.26-.16-.38-.06c-.04,0-.06.04-.1.06-.1.06-.22.1-.36.16l-.38.1c-.06,0-.12.04-.18.04h-.42s-.04,0,0,0h-.18c-.28-.04-.6-.12-.87-.26-.22-.16-.5-.36-.75-.58s-.48-.5-.64-.79c-.16-.28-.28-.64-.36-1.01-.04-.18-.04-.38-.04-.54v-.16h0v-.12c0-.1.04-.18.04-.28.12-.79.54-1.55,1.13-2.13.16-.16.32-.28.48-.38.16-.12.36-.22.54-.32.18-.1.38-.16.6-.22.22-.06.42-.1.64-.1h.54s0,0,0,0h.12c.22.04.48.06.7.1.44.1.87.26,1.33.5.81.48,1.51,1.17,1.97,2.03.22.44.38.87.44,1.35.04.12.04.26.04.36v.75c0,.12-.04.26-.04.38-.04.12-.04.26-.06.38l-.1.38c-.06.26-.16.5-.26.75-.18.48-.44.95-.75,1.39-.64.85-1.49,1.55-2.42,1.99-.48.22-1.01.38-1.51.48-.26.04-.54.06-.79.06h-.38s0,0,0,0h-.04c-.16,0-.28,0-.42-.04-.58-.04-1.13-.12-1.67-.28s-1.07-.38-1.59-.64c-1.01-.54-1.89-1.27-2.58-2.15-.36-.44-.66-.91-.91-1.43-.26-.5-.44-1.01-.6-1.55-.16-.54-.26-1.07-.28-1.65v-.64h0v-.26c0-.28.04-.54.06-.81s.1-.58.12-.85.12-.58.2-.81c.16-.54.36-1.07.58-1.55.48-.97,1.07-1.87,1.77-2.56.2-.2.38-.36.58-.5.2-.16.38-.32.6-.44s.42-.26.64-.38c.1-.06.22-.12.32-.16.06-.04.12-.06.16-.06s.12-.06.16-.06c.22-.1.48-.2.7-.26.06-.04.12-.04.18-.06s.12-.04.18-.06l.38-.1c.06,0,.12-.04.18-.04s.12-.04.18-.04.12-.04.18-.04h.18c.06,0,.12-.04.18-.04s.12,0,.22-.04c.06,0,.16-.04.22-.04h.64s.04,0,0,0h.95c.48.04.95.06,1.39.16.87.16,1.75.44,2.5.81s1.45.81,2.05,1.33l.1.1.1.1c.06.06.12.12.22.2s.12.12.18.2l.18.2c.26.28.48.54.7.81.42.54.75,1.11,1.03,1.61.04.04.04.06.06.1s.04.06.06.1l.1.2.1.2c.04.06.06.12.06.2.1.26.18.48.26.7.12.36.22.66.28.95.04.1.12.18.26.16.12,0,.22-.1.22-.22.14-.38.12-.72.08-1.13h0Z"/>
    <path class="cls-3" d="M455.6,71.14c-.04-.5-.12-1.07-.28-1.67-.16-.64-.42-1.29-.75-2.03-.36-.7-.81-1.45-1.43-2.18-.22-.28-.5-.58-.75-.81.42-1.65-.5-3.06-.5-3.06-1.57-.1-2.58.5-2.96.75-.06-.04-.12-.06-.18-.06-.26-.12-.54-.22-.81-.28s-.58-.16-.87-.26c-.28-.06-.6-.12-.91-.18-.06,0-.1-.04-.16-.04-.73-2.22-2.74-3.14-2.74-3.14-2.2,1.39-2.62,3.36-2.62,3.36,0,0,0,.04-.04.12l-.36.1c-.16.06-.36.12-.5.2-.16.06-.36.12-.5.2-.32.12-.66.32-.97.48-.32.2-.64.38-.91.58-.06-.06-.1-.06-.1-.06-3.06-1.17-5.78.26-5.78.26-.18,3.26,1.27,5.3,1.55,5.68-.06.2-.12.42-.2.6-.22.73-.38,1.49-.5,2.28-.04.1-.04.22-.04.36-2.8,1.37-3.65,4.21-3.65,4.21,2.36,2.72,5.08,2.88,5.08,2.88h0c.36.64.75,1.19,1.19,1.77.2.22.38.44.6.66-.85,2.46.12,4.49.12,4.49,2.62.1,4.35-1.13,4.71-1.43.26.1.54.16.79.26.79.22,1.65.32,2.46.38h1.03c1.23,1.77,3.42,2.03,3.42,2.03,1.55-1.65,1.65-3.26,1.65-3.6h0v-.1h0v-.06c.32-.22.64-.48.91-.73.64-.58,1.17-1.19,1.61-1.89.04-.06.1-.12.12-.18,1.75.1,2.96-1.07,2.96-1.07-.28-1.83-1.33-2.72-1.55-2.88h-.06s-.04,0-.04-.04c0-.1.04-.22.04-.32,0-.18.04-.38.04-.6v-.75c0-.06,0-.1-.04-.16l-.04-.16-.04-.16c-.04-.18-.06-.42-.12-.6-.18-.79-.5-1.51-.87-2.2-.42-.66-.91-1.27-1.49-1.77s-1.19-.91-1.87-1.19-1.35-.5-2.05-.58c-.36-.04-.7-.06-1.03-.06h-.16s-.06,0-.04,0h-.36c-.18,0-.36.04-.54.06-.7.12-1.35.38-1.93.73s-1.07.79-1.49,1.27c-.42.48-.73,1.03-.95,1.57s-.36,1.13-.38,1.71v.81c.04.28.06.58.16.81.16.54.38,1.01.7,1.43s.66.73,1.03,1.01c.38.26.79.44,1.19.58s.79.16,1.19.16h.54c.06,0,.1-.04.12-.04s.1-.04.12-.04c.1-.04.16-.04.26-.06l.48-.18c.16-.06.28-.16.42-.26.04-.04.06-.06.1-.06.12-.1.16-.28.06-.42s-.26-.16-.38-.06c-.04,0-.06.04-.1.06-.1.06-.22.1-.36.16l-.38.1c-.06,0-.12.04-.18.04h-.42s-.04,0,0,0h-.18c-.28-.04-.6-.12-.87-.26-.22-.16-.5-.36-.75-.58s-.48-.5-.64-.79c-.16-.28-.28-.64-.36-1.01-.04-.18-.04-.38-.04-.54v-.16h0v-.12c0-.1.04-.18.04-.28.12-.79.54-1.55,1.13-2.13.16-.16.32-.28.48-.38.16-.12.36-.22.54-.32.18-.1.38-.16.6-.22.22-.06.42-.1.64-.1h.54s0,0,0,0h.12c.22.04.48.06.7.1.44.1.87.26,1.33.5.81.48,1.51,1.17,1.97,2.03.22.44.38.87.44,1.35.04.12.04.26.04.36v.75c0,.12-.04.26-.04.38-.04.12-.04.26-.06.38l-.1.38c-.06.26-.16.5-.26.75-.18.48-.44.95-.75,1.39-.64.85-1.49,1.55-2.42,1.99-.48.22-1.01.38-1.51.48-.26.04-.54.06-.79.06h-.38s0,0,0,0h-.04c-.16,0-.28,0-.42-.04-.58-.04-1.13-.12-1.67-.28s-1.07-.38-1.59-.64c-1.01-.54-1.89-1.27-2.58-2.15-.36-.44-.66-.91-.91-1.43-.26-.5-.44-1.01-.6-1.55-.16-.54-.26-1.07-.28-1.65v-.64h0v-.26c0-.28.04-.54.06-.81s.1-.58.12-.85.12-.58.2-.81c.16-.54.36-1.07.58-1.55.48-.97,1.07-1.87,1.77-2.56.2-.2.38-.36.58-.5.2-.16.38-.32.6-.44s.42-.26.64-.38c.1-.06.22-.12.32-.16.06-.04.12-.06.16-.06s.12-.06.16-.06c.22-.1.48-.2.7-.26.06-.04.12-.04.18-.06s.12-.04.18-.06l.38-.1c.06,0,.12-.04.18-.04s.12-.04.18-.04.12-.04.18-.04h.18c.06,0,.12-.04.18-.04s.12,0,.22-.04c.06,0,.16-.04.22-.04h.64s.04,0,0,0h.95c.48.04.95.06,1.39.16.87.16,1.75.44,2.5.81s1.45.81,2.05,1.33l.1.1.1.1c.06.06.12.12.22.2s.12.12.18.2l.18.2c.26.28.48.54.7.81.42.54.75,1.11,1.03,1.61.04.04.04.06.06.1s.04.06.06.1l.1.2.1.2c.04.06.06.12.06.2.1.26.18.48.26.7.12.36.22.66.28.95.04.1.12.18.26.16.12,0,.22-.1.22-.22.14-.38.12-.72.08-1.13h0Z"/>
    <path class="cls-3" d="M535.6,73.14c-.04-.5-.12-1.07-.28-1.67-.16-.64-.42-1.29-.75-2.03-.36-.7-.81-1.45-1.43-2.18-.22-.28-.5-.58-.75-.81.42-1.65-.5-3.06-.5-3.06-1.57-.1-2.58.5-2.96.75-.06-.04-.12-.06-.18-.06-.26-.12-.54-.22-.81-.28s-.58-.16-.87-.26c-.28-.06-.6-.12-.91-.18-.06,0-.1-.04-.16-.04-.73-2.22-2.74-3.14-2.74-3.14-2.2,1.39-2.62,3.36-2.62,3.36,0,0,0,.04-.04.12l-.36.1c-.16.06-.36.12-.5.2-.16.06-.36.12-.5.2-.32.12-.66.32-.97.48-.32.2-.64.38-.91.58-.06-.06-.1-.06-.1-.06-3.06-1.17-5.78.26-5.78.26-.18,3.26,1.27,5.3,1.55,5.68-.06.2-.12.42-.2.6-.22.73-.38,1.49-.5,2.28-.04.1-.04.22-.04.36-2.8,1.37-3.65,4.21-3.65,4.21,2.36,2.72,5.08,2.88,5.08,2.88h0c.36.64.75,1.19,1.19,1.77.2.22.38.44.6.66-.85,2.46.12,4.49.12,4.49,2.62.1,4.35-1.13,4.71-1.43.26.1.54.16.79.26.79.22,1.65.32,2.46.38h1.03c1.23,1.77,3.42,2.03,3.42,2.03,1.55-1.65,1.65-3.26,1.65-3.6h0v-.1h0v-.06c.32-.22.64-.48.91-.73.64-.58,1.17-1.19,1.61-1.89.04-.06.1-.12.12-.18,1.75.1,2.96-1.07,2.96-1.07-.28-1.83-1.33-2.72-1.55-2.88h-.06s-.04,0-.04-.04c0-.1.04-.22.04-.32,0-.18.04-.38.04-.6v-.75c0-.06,0-.1-.04-.16l-.04-.16-.04-.16c-.04-.18-.06-.42-.12-.6-.18-.79-.5-1.51-.87-2.2-.42-.66-.91-1.27-1.49-1.77s-1.19-.91-1.87-1.19-1.35-.5-2.05-.58c-.36-.04-.7-.06-1.03-.06h-.16s-.06,0-.04,0h-.36c-.18,0-.36.04-.54.06-.7.12-1.35.38-1.93.73s-1.07.79-1.49,1.27c-.42.48-.73,1.03-.95,1.57s-.36,1.13-.38,1.71v.81c.04.28.06.58.16.81.16.54.38,1.01.7,1.43s.66.73,1.03,1.01c.38.26.79.44,1.19.58s.79.16,1.19.16h.54c.06,0,.1-.04.12-.04s.1-.04.12-.04c.1-.04.16-.04.26-.06l.48-.18c.16-.06.28-.16.42-.26.04-.04.06-.06.1-.06.12-.1.16-.28.06-.42s-.26-.16-.38-.06c-.04,0-.06.04-.1.06-.1.06-.22.1-.36.16l-.38.1c-.06,0-.12.04-.18.04h-.42s-.04,0,0,0h-.18c-.28-.04-.6-.12-.87-.26-.22-.16-.5-.36-.75-.58s-.48-.5-.64-.79c-.16-.28-.28-.64-.36-1.01-.04-.18-.04-.38-.04-.54v-.16h0v-.12c0-.1.04-.18.04-.28.12-.79.54-1.55,1.13-2.13.16-.16.32-.28.48-.38.16-.12.36-.22.54-.32.18-.1.38-.16.6-.22.22-.06.42-.1.64-.1h.54s0,0,0,0h.12c.22.04.48.06.7.1.44.1.87.26,1.33.5.81.48,1.51,1.17,1.97,2.03.22.44.38.87.44,1.35.04.12.04.26.04.36v.75c0,.12-.04.26-.04.38-.04.12-.04.26-.06.38l-.1.38c-.06.26-.16.5-.26.75-.18.48-.44.95-.75,1.39-.64.85-1.49,1.55-2.42,1.99-.48.22-1.01.38-1.51.48-.26.04-.54.06-.79.06h-.38s0,0,0,0h-.04c-.16,0-.28,0-.42-.04-.58-.04-1.13-.12-1.67-.28s-1.07-.38-1.59-.64c-1.01-.54-1.89-1.27-2.58-2.15-.36-.44-.66-.91-.91-1.43-.26-.5-.44-1.01-.6-1.55-.16-.54-.26-1.07-.28-1.65v-.64h0v-.26c0-.28.04-.54.06-.81s.1-.58.12-.85.12-.58.2-.81c.16-.54.36-1.07.58-1.55.48-.97,1.07-1.87,1.77-2.56.2-.2.38-.36.58-.5.2-.16.38-.32.6-.44s.42-.26.64-.38c.1-.06.22-.12.32-.16.06-.04.12-.06.16-.06s.12-.06.16-.06c.22-.1.48-.2.7-.26.06-.04.12-.04.18-.06s.12-.04.18-.06l.38-.1c.06,0,.12-.04.18-.04s.12-.04.18-.04.12-.04.18-.04h.18c.06,0,.12-.04.18-.04s.12,0,.22-.04c.06,0,.16-.04.22-.04h.64s.04,0,0,0h.95c.48.04.95.06,1.39.16.87.16,1.75.44,2.5.81s1.45.81,2.05,1.33l.1.1.1.1c.06.06.12.12.22.2s.12.12.18.2l.18.2c.26.28.48.54.7.81.42.54.75,1.11,1.03,1.61.04.04.04.06.06.1s.04.06.06.1l.1.2.1.2c.04.06.06.12.06.2.1.26.18.48.26.7.12.36.22.66.28.95.04.1.12.18.26.16.12,0,.22-.1.22-.22.14-.38.12-.72.08-1.13h0Z"/>
    <path class="cls-3" d="M600.6,113.14c-.04-.5-.12-1.07-.28-1.67-.16-.64-.42-1.29-.75-2.03-.36-.7-.81-1.45-1.43-2.18-.22-.28-.5-.58-.75-.81.42-1.65-.5-3.06-.5-3.06-1.57-.1-2.58.5-2.96.75-.06-.04-.12-.06-.18-.06-.26-.12-.54-.22-.81-.28s-.58-.16-.87-.26c-.28-.06-.6-.12-.91-.18-.06,0-.1-.04-.16-.04-.73-2.22-2.74-3.14-2.74-3.14-2.2,1.39-2.62,3.36-2.62,3.36,0,0,0,.04-.04.12l-.36.1c-.16.06-.36.12-.5.2-.16.06-.36.12-.5.2-.32.12-.66.32-.97.48-.32.2-.64.38-.91.58-.06-.06-.1-.06-.1-.06-3.06-1.17-5.78.26-5.78.26-.18,3.26,1.27,5.3,1.55,5.68-.06.2-.12.42-.2.6-.22.73-.38,1.49-.5,2.28-.04.1-.04.22-.04.36-2.8,1.37-3.65,4.21-3.65,4.21,2.36,2.72,5.08,2.88,5.08,2.88h0c.36.64.75,1.19,1.19,1.77.2.22.38.44.6.66-.85,2.46.12,4.49.12,4.49,2.62.1,4.35-1.13,4.71-1.43.26.1.54.16.79.26.79.22,1.65.32,2.46.38h1.03c1.23,1.77,3.42,2.03,3.42,2.03,1.55-1.65,1.65-3.26,1.65-3.6h0v-.1h0v-.06c.32-.22.64-.48.91-.73.64-.58,1.17-1.19,1.61-1.89.04-.06.1-.12.12-.18,1.75.1,2.96-1.07,2.96-1.07-.28-1.83-1.33-2.72-1.55-2.88h-.06s-.04,0-.04-.04c0-.1.04-.22.04-.32,0-.18.04-.38.04-.6v-.75c0-.06,0-.1-.04-.16l-.04-.16-.04-.16c-.04-.18-.06-.42-.12-.6-.18-.79-.5-1.51-.87-2.2-.42-.66-.91-1.27-1.49-1.77s-1.19-.91-1.87-1.19-1.35-.5-2.05-.58c-.36-.04-.7-.06-1.03-.06h-.16s-.06,0-.04,0h-.36c-.18,0-.36.04-.54.06-.7.12-1.35.38-1.93.73s-1.07.79-1.49,1.27c-.42.48-.73,1.03-.95,1.57s-.36,1.13-.38,1.71v.81c.04.28.06.58.16.81.16.54.38,1.01.7,1.43s.66.73,1.03,1.01c.38.26.79.44,1.19.58s.79.16,1.19.16h.54c.06,0,.1-.04.12-.04s.1-.04.12-.04c.1-.04.16-.04.26-.06l.48-.18c.16-.06.28-.16.42-.26.04-.04.06-.06.1-.06.12-.1.16-.28.06-.42s-.26-.16-.38-.06c-.04,0-.06.04-.1.06-.1.06-.22.1-.36.16l-.38.1c-.06,0-.12.04-.18.04h-.42s-.04,0,0,0h-.18c-.28-.04-.6-.12-.87-.26-.22-.16-.5-.36-.75-.58s-.48-.5-.64-.79c-.16-.28-.28-.64-.36-1.01-.04-.18-.04-.38-.04-.54v-.16h0v-.12c0-.1.04-.18.04-.28.12-.79.54-1.55,1.13-2.13.16-.16.32-.28.48-.38.16-.12.36-.22.54-.32.18-.1.38-.16.6-.22.22-.06.42-.1.64-.1h.54s0,0,0,0h.12c.22.04.48.06.7.1.44.1.87.26,1.33.5.81.48,1.51,1.17,1.97,2.03.22.44.38.87.44,1.35.04.12.04.26.04.36v.75c0,.12-.04.26-.04.38-.04.12-.04.26-.06.38l-.1.38c-.06.26-.16.5-.26.75-.18.48-.44.95-.75,1.39-.64.85-1.49,1.55-2.42,1.99-.48.22-1.01.38-1.51.48-.26.04-.54.06-.79.06h-.38s0,0,0,0h-.04c-.16,0-.28,0-.42-.04-.58-.04-1.13-.12-1.67-.28s-1.07-.38-1.59-.64c-1.01-.54-1.89-1.27-2.58-2.15-.36-.44-.66-.91-.91-1.43-.26-.5-.44-1.01-.6-1.55-.16-.54-.26-1.07-.28-1.65v-.64h0v-.26c0-.28.04-.54.06-.81s.1-.58.12-.85.12-.58.2-.81c.16-.54.36-1.07.58-1.55.48-.97,1.07-1.87,1.77-2.56.2-.2.38-.36.58-.5.2-.16.38-.32.6-.44s.42-.26.64-.38c.1-.06.22-.12.32-.16.06-.04.12-.06.16-.06s.12-.06.16-.06c.22-.1.48-.2.7-.26.06-.04.12-.04.18-.06s.12-.04.18-.06l.38-.1c.06,0,.12-.04.18-.04s.12-.04.18-.04.12-.04.18-.04h.18c.06,0,.12-.04.18-.04s.12,0,.22-.04c.06,0,.16-.04.22-.04h.64s.04,0,0,0h.95c.48.04.95.06,1.39.16.87.16,1.75.44,2.5.81s1.45.81,2.05,1.33l.1.1.1.1c.06.06.12.12.22.2s.12.12.18.2l.18.2c.26.28.48.54.7.81.42.54.75,1.11,1.03,1.61.04.04.04.06.06.1s.04.06.06.1l.1.2.1.2c.04.06.06.12.06.2.1.26.18.48.26.7.12.36.22.66.28.95.04.1.12.18.26.16.12,0,.22-.1.22-.22.14-.38.12-.72.08-1.13h0Z"/>
    <path class="cls-3" d="M540.6,148.14c-.04-.5-.12-1.07-.28-1.67-.16-.64-.42-1.29-.75-2.03-.36-.7-.81-1.45-1.43-2.18-.22-.28-.5-.58-.75-.81.42-1.65-.5-3.06-.5-3.06-1.57-.1-2.58.5-2.96.75-.06-.04-.12-.06-.18-.06-.26-.12-.54-.22-.81-.28s-.58-.16-.87-.26c-.28-.06-.6-.12-.91-.18-.06,0-.1-.04-.16-.04-.73-2.22-2.74-3.14-2.74-3.14-2.2,1.39-2.62,3.36-2.62,3.36,0,0,0,.04-.04.12l-.36.1c-.16.06-.36.12-.5.2-.16.06-.36.12-.5.2-.32.12-.66.32-.97.48-.32.2-.64.38-.91.58-.06-.06-.1-.06-.1-.06-3.06-1.17-5.78.26-5.78.26-.18,3.26,1.27,5.3,1.55,5.68-.06.2-.12.42-.2.6-.22.73-.38,1.49-.5,2.28-.04.1-.04.22-.04.36-2.8,1.37-3.65,4.21-3.65,4.21,2.36,2.72,5.08,2.88,5.08,2.88h0c.36.64.75,1.19,1.19,1.77.2.22.38.44.6.66-.85,2.46.12,4.49.12,4.49,2.62.1,4.35-1.13,4.71-1.43.26.1.54.16.79.26.79.22,1.65.32,2.46.38h1.03c1.23,1.77,3.42,2.03,3.42,2.03,1.55-1.65,1.65-3.26,1.65-3.6h0v-.1h0v-.06c.32-.22.64-.48.91-.73.64-.58,1.17-1.19,1.61-1.89.04-.06.1-.12.12-.18,1.75.1,2.96-1.07,2.96-1.07-.28-1.83-1.33-2.72-1.55-2.88h-.06s-.04,0-.04-.04c0-.1.04-.22.04-.32,0-.18.04-.38.04-.6v-.75c0-.06,0-.1-.04-.16l-.04-.16-.04-.16c-.04-.18-.06-.42-.12-.6-.18-.79-.5-1.51-.87-2.2-.42-.66-.91-1.27-1.49-1.77s-1.19-.91-1.87-1.19-1.35-.5-2.05-.58c-.36-.04-.7-.06-1.03-.06h-.16s-.06,0-.04,0h-.36c-.18,0-.36.04-.54.06-.7.12-1.35.38-1.93.73s-1.07.79-1.49,1.27c-.42.48-.73,1.03-.95,1.57s-.36,1.13-.38,1.71v.81c.04.28.06.58.16.81.16.54.38,1.01.7,1.43s.66.73,1.03,1.01c.38.26.79.44,1.19.58s.79.16,1.19.16h.54c.06,0,.1-.04.12-.04s.1-.04.12-.04c.1-.04.16-.04.26-.06l.48-.18c.16-.06.28-.16.42-.26.04-.04.06-.06.1-.06.12-.1.16-.28.06-.42s-.26-.16-.38-.06c-.04,0-.06.04-.1.06-.1.06-.22.1-.36.16l-.38.1c-.06,0-.12.04-.18.04h-.42s-.04,0,0,0h-.18c-.28-.04-.6-.12-.87-.26-.22-.16-.5-.36-.75-.58s-.48-.5-.64-.79c-.16-.28-.28-.64-.36-1.01-.04-.18-.04-.38-.04-.54v-.16h0v-.12c0-.1.04-.18.04-.28.12-.79.54-1.55,1.13-2.13.16-.16.32-.28.48-.38.16-.12.36-.22.54-.32.18-.1.38-.16.6-.22.22-.06.42-.1.64-.1h.54s0,0,0,0h.12c.22.04.48.06.7.1.44.1.87.26,1.33.5.81.48,1.51,1.17,1.97,2.03.22.44.38.87.44,1.35.04.12.04.26.04.36v.75c0,.12-.04.26-.04.38-.04.12-.04.26-.06.38l-.1.38c-.06.26-.16.5-.26.75-.18.48-.44.95-.75,1.39-.64.85-1.49,1.55-2.42,1.99-.48.22-1.01.38-1.51.48-.26.04-.54.06-.79.06h-.38s0,0,0,0h-.04c-.16,0-.28,0-.42-.04-.58-.04-1.13-.12-1.67-.28s-1.07-.38-1.59-.64c-1.01-.54-1.89-1.27-2.58-2.15-.36-.44-.66-.91-.91-1.43-.26-.5-.44-1.01-.6-1.55-.16-.54-.26-1.07-.28-1.65v-.64h0v-.26c0-.28.04-.54.06-.81s.1-.58.12-.85.12-.58.2-.81c.16-.54.36-1.07.58-1.55.48-.97,1.07-1.87,1.77-2.56.2-.2.38-.36.58-.5.2-.16.38-.32.6-.44s.42-.26.64-.38c.1-.06.22-.12.32-.16.06-.04.12-.06.16-.06s.12-.06.16-.06c.22-.1.48-.2.7-.26.06-.04.12-.04.18-.06s.12-.04.18-.06l.38-.1c.06,0,.12-.04.18-.04s.12-.04.18-.04.12-.04.18-.04h.18c.06,0,.12-.04.18-.04s.12,0,.22-.04c.06,0,.16-.04.22-.04h.64s.04,0,0,0h.95c.48.04.95.06,1.39.16.87.16,1.75.44,2.5.81s1.45.81,2.05,1.33l.1.1.1.1c.06.06.12.12.22.2s.12.12.18.2l.18.2c.26.28.48.54.7.81.42.54.75,1.11,1.03,1.61.04.04.04.06.06.1s.04.06.06.1l.1.2.1.2c.04.06.06.12.06.2.1.26.18.48.26.7.12.36.22.66.28.95.04.1.12.18.26.16.12,0,.22-.1.22-.22.14-.38.12-.72.08-1.13h0Z"/>
    <path class="cls-3" d="M488.6,114.14c-.04-.5-.12-1.07-.28-1.67-.16-.64-.42-1.29-.75-2.03-.36-.7-.81-1.45-1.43-2.18-.22-.28-.5-.58-.75-.81.42-1.65-.5-3.06-.5-3.06-1.57-.1-2.58.5-2.96.75-.06-.04-.12-.06-.18-.06-.26-.12-.54-.22-.81-.28s-.58-.16-.87-.26c-.28-.06-.6-.12-.91-.18-.06,0-.1-.04-.16-.04-.73-2.22-2.74-3.14-2.74-3.14-2.2,1.39-2.62,3.36-2.62,3.36,0,0,0,.04-.04.12l-.36.1c-.16.06-.36.12-.5.2-.16.06-.36.12-.5.2-.32.12-.66.32-.97.48-.32.2-.64.38-.91.58-.06-.06-.1-.06-.1-.06-3.06-1.17-5.78.26-5.78.26-.18,3.26,1.27,5.3,1.55,5.68-.06.2-.12.42-.2.6-.22.73-.38,1.49-.5,2.28-.04.1-.04.22-.04.36-2.8,1.37-3.65,4.21-3.65,4.21,2.36,2.72,5.08,2.88,5.08,2.88h0c.36.64.75,1.19,1.19,1.77.2.22.38.44.6.66-.85,2.46.12,4.49.12,4.49,2.62.1,4.35-1.13,4.71-1.43.26.1.54.16.79.26.79.22,1.65.32,2.46.38h1.03c1.23,1.77,3.42,2.03,3.42,2.03,1.55-1.65,1.65-3.26,1.65-3.6h0v-.1h0v-.06c.32-.22.64-.48.91-.73.64-.58,1.17-1.19,1.61-1.89.04-.06.1-.12.12-.18,1.75.1,2.96-1.07,2.96-1.07-.28-1.83-1.33-2.72-1.55-2.88h-.06s-.04,0-.04-.04c0-.1.04-.22.04-.32,0-.18.04-.38.04-.6v-.75c0-.06,0-.1-.04-.16l-.04-.16-.04-.16c-.04-.18-.06-.42-.12-.6-.18-.79-.5-1.51-.87-2.2-.42-.66-.91-1.27-1.49-1.77s-1.19-.91-1.87-1.19-1.35-.5-2.05-.58c-.36-.04-.7-.06-1.03-.06h-.16s-.06,0-.04,0h-.36c-.18,0-.36.04-.54.06-.7.12-1.35.38-1.93.73s-1.07.79-1.49,1.27c-.42.48-.73,1.03-.95,1.57s-.36,1.13-.38,1.71v.81c.04.28.06.58.16.81.16.54.38,1.01.7,1.43s.66.73,1.03,1.01c.38.26.79.44,1.19.58s.79.16,1.19.16h.54c.06,0,.1-.04.12-.04s.1-.04.12-.04c.1-.04.16-.04.26-.06l.48-.18c.16-.06.28-.16.42-.26.04-.04.06-.06.1-.06.12-.1.16-.28.06-.42s-.26-.16-.38-.06c-.04,0-.06.04-.1.06-.1.06-.22.1-.36.16l-.38.1c-.06,0-.12.04-.18.04h-.42s-.04,0,0,0h-.18c-.28-.04-.6-.12-.87-.26-.22-.16-.5-.36-.75-.58s-.48-.5-.64-.79c-.16-.28-.28-.64-.36-1.01-.04-.18-.04-.38-.04-.54v-.16h0v-.12c0-.1.04-.18.04-.28.12-.79.54-1.55,1.13-2.13.16-.16.32-.28.48-.38.16-.12.36-.22.54-.32.18-.1.38-.16.6-.22.22-.06.42-.1.64-.1h.54s0,0,0,0h.12c.22.04.48.06.7.1.44.1.87.26,1.33.5.81.48,1.51,1.17,1.97,2.03.22.44.38.87.44,1.35.04.12.04.26.04.36v.75c0,.12-.04.26-.04.38-.04.12-.04.26-.06.38l-.1.38c-.06.26-.16.5-.26.75-.18.48-.44.95-.75,1.39-.64.85-1.49,1.55-2.42,1.99-.48.22-1.01.38-1.51.48-.26.04-.54.06-.79.06h-.38s0,0,0,0h-.04c-.16,0-.28,0-.42-.04-.58-.04-1.13-.12-1.67-.28s-1.07-.38-1.59-.64c-1.01-.54-1.89-1.27-2.58-2.15-.36-.44-.66-.91-.91-1.43-.26-.5-.44-1.01-.6-1.55-.16-.54-.26-1.07-.28-1.65v-.64h0v-.26c0-.28.04-.54.06-.81s.1-.58.12-.85.12-.58.2-.81c.16-.54.36-1.07.58-1.55.48-.97,1.07-1.87,1.77-2.56.2-.2.38-.36.58-.5.2-.16.38-.32.6-.44s.42-.26.64-.38c.1-.06.22-.12.32-.16.06-.04.12-.06.16-.06s.12-.06.16-.06c.22-.1.48-.2.7-.26.06-.04.12-.04.18-.06s.12-.04.18-.06l.38-.1c.06,0,.12-.04.18-.04s.12-.04.18-.04.12-.04.18-.04h.18c.06,0,.12-.04.18-.04s.12,0,.22-.04c.06,0,.16-.04.22-.04h.64s.04,0,0,0h.95c.48.04.95.06,1.39.16.87.16,1.75.44,2.5.81s1.45.81,2.05,1.33l.1.1.1.1c.06.06.12.12.22.2s.12.12.18.2l.18.2c.26.28.48.54.7.81.42.54.75,1.11,1.03,1.61.04.04.04.06.06.1s.04.06.06.1l.1.2.1.2c.04.06.06.12.06.2.1.26.18.48.26.7.12.36.22.66.28.95.04.1.12.18.26.16.12,0,.22-.1.22-.22.14-.38.12-.72.08-1.13h0Z"/>
    <path class="cls-3" d="M406.6,111.14c-.04-.5-.12-1.07-.28-1.67-.16-.64-.42-1.29-.75-2.03-.36-.7-.81-1.45-1.43-2.18-.22-.28-.5-.58-.75-.81.42-1.65-.5-3.06-.5-3.06-1.57-.1-2.58.5-2.96.75-.06-.04-.12-.06-.18-.06-.26-.12-.54-.22-.81-.28s-.58-.16-.87-.26c-.28-.06-.6-.12-.91-.18-.06,0-.1-.04-.16-.04-.73-2.22-2.74-3.14-2.74-3.14-2.2,1.39-2.62,3.36-2.62,3.36,0,0,0,.04-.04.12l-.36.1c-.16.06-.36.12-.5.2-.16.06-.36.12-.5.2-.32.12-.66.32-.97.48-.32.2-.64.38-.91.58-.06-.06-.1-.06-.1-.06-3.06-1.17-5.78.26-5.78.26-.18,3.26,1.27,5.3,1.55,5.68-.06.2-.12.42-.2.6-.22.73-.38,1.49-.5,2.28-.04.1-.04.22-.04.36-2.8,1.37-3.65,4.21-3.65,4.21,2.36,2.72,5.08,2.88,5.08,2.88h0c.36.64.75,1.19,1.19,1.77.2.22.38.44.6.66-.85,2.46.12,4.49.12,4.49,2.62.1,4.35-1.13,4.71-1.43.26.1.54.16.79.26.79.22,1.65.32,2.46.38h1.03c1.23,1.77,3.42,2.03,3.42,2.03,1.55-1.65,1.65-3.26,1.65-3.6h0v-.1h0v-.06c.32-.22.64-.48.91-.73.64-.58,1.17-1.19,1.61-1.89.04-.06.1-.12.12-.18,1.75.1,2.96-1.07,2.96-1.07-.28-1.83-1.33-2.72-1.55-2.88h-.06s-.04,0-.04-.04c0-.1.04-.22.04-.32,0-.18.04-.38.04-.6v-.75c0-.06,0-.1-.04-.16l-.04-.16-.04-.16c-.04-.18-.06-.42-.12-.6-.18-.79-.5-1.51-.87-2.2-.42-.66-.91-1.27-1.49-1.77s-1.19-.91-1.87-1.19-1.35-.5-2.05-.58c-.36-.04-.7-.06-1.03-.06h-.16s-.06,0-.04,0h-.36c-.18,0-.36.04-.54.06-.7.12-1.35.38-1.93.73s-1.07.79-1.49,1.27c-.42.48-.73,1.03-.95,1.57s-.36,1.13-.38,1.71v.81c.04.28.06.58.16.81.16.54.38,1.01.7,1.43s.66.73,1.03,1.01c.38.26.79.44,1.19.58s.79.16,1.19.16h.54c.06,0,.1-.04.12-.04s.1-.04.12-.04c.1-.04.16-.04.26-.06l.48-.18c.16-.06.28-.16.42-.26.04-.04.06-.06.1-.06.12-.1.16-.28.06-.42s-.26-.16-.38-.06c-.04,0-.06.04-.1.06-.1.06-.22.1-.36.16l-.38.1c-.06,0-.12.04-.18.04h-.42s-.04,0,0,0h-.18c-.28-.04-.6-.12-.87-.26-.22-.16-.5-.36-.75-.58s-.48-.5-.64-.79c-.16-.28-.28-.64-.36-1.01-.04-.18-.04-.38-.04-.54v-.16h0v-.12c0-.1.04-.18.04-.28.12-.79.54-1.55,1.13-2.13.16-.16.32-.28.48-.38.16-.12.36-.22.54-.32.18-.1.38-.16.6-.22.22-.06.42-.1.64-.1h.54s0,0,0,0h.12c.22.04.48.06.7.1.44.1.87.26,1.33.5.81.48,1.51,1.17,1.97,2.03.22.44.38.87.44,1.35.04.12.04.26.04.36v.75c0,.12-.04.26-.04.38-.04.12-.04.26-.06.38l-.1.38c-.06.26-.16.5-.26.75-.18.48-.44.95-.75,1.39-.64.85-1.49,1.55-2.42,1.99-.48.22-1.01.38-1.51.48-.26.04-.54.06-.79.06h-.38s0,0,0,0h-.04c-.16,0-.28,0-.42-.04-.58-.04-1.13-.12-1.67-.28s-1.07-.38-1.59-.64c-1.01-.54-1.89-1.27-2.58-2.15-.36-.44-.66-.91-.91-1.43-.26-.5-.44-1.01-.6-1.55-.16-.54-.26-1.07-.28-1.65v-.64h0v-.26c0-.28.04-.54.06-.81s.1-.58.12-.85.12-.58.2-.81c.16-.54.36-1.07.58-1.55.48-.97,1.07-1.87,1.77-2.56.2-.2.38-.36.58-.5.2-.16.38-.32.6-.44s.42-.26.64-.38c.1-.06.22-.12.32-.16.06-.04.12-.06.16-.06s.12-.06.16-.06c.22-.1.48-.2.7-.26.06-.04.12-.04.18-.06s.12-.04.18-.06l.38-.1c.06,0,.12-.04.18-.04s.12-.04.18-.04.12-.04.18-.04h.18c.06,0,.12-.04.18-.04s.12,0,.22-.04c.06,0,.16-.04.22-.04h.64s.04,0,0,0h.95c.48.04.95.06,1.39.16.87.16,1.75.44,2.5.81s1.45.81,2.05,1.33l.1.1.1.1c.06.06.12.12.22.2s.12.12.18.2l.18.2c.26.28.48.54.7.81.42.54.75,1.11,1.03,1.61.04.04.04.06.06.1s.04.06.06.1l.1.2.1.2c.04.06.06.12.06.2.1.26.18.48.26.7.12.36.22.66.28.95.04.1.12.18.26.16.12,0,.22-.1.22-.22.14-.38.12-.72.08-1.13h0Z"/>
  </g>
  <text class="cls-1" transform="translate(15.86 726.09)"><tspan x="0" y="0">KITCHEN</tspan></text>
  <text class="cls-2" transform="translate(327.43 850.36)"><tspan x="0" y="0">OPS</tspan></text>
  <path class="cls-3" d="M286.88,812.09H23.78c-4.52,0-8.19-3.66-8.19-8.19s3.66-8.19,8.19-8.19h263.09c4.52,0,8.19,3.66,8.19,8.19s-3.66,8.19-8.19,8.19Z"/>
  <path class="cls-3" d="M860.74,812.09h-263.09c-4.52,0-8.19-3.66-8.19-8.19s3.66-8.19,8.19-8.19h263.09c4.52,0,8.19,3.66,8.19,8.19s-3.66,8.19-8.19,8.19Z"/>
</svg>