<?xml version="1.0" encoding="UTF-8"?>
<svg id="Layer_1" data-name="Layer 1" xmlns="http://www.w3.org/2000/svg" viewBox="0 0 393.42 393.42">
  <defs>
    <style>
      .cls-1 {
        fill: #e03043;
      }
    </style>
  </defs>
  <path class="cls-1" d="M343.4,373.15H46.97c-13.59,0-24.65-11.06-24.65-24.65V52.07c0-13.59,11.06-24.65,24.65-24.65h296.43c13.59,0,24.65,11.06,24.65,24.65v296.43c0,13.59-11.06,24.65-24.65,24.65ZM46.97,44.07c-4.41,0-8,3.59-8,8v296.43c0,4.41,3.59,8,8,8h296.43c4.41,0,8-3.59,8-8V52.07c0-4.41-3.59-8-8-8H46.97Z"/>
  <rect class="cls-1" x="176.74" y="108.74" width="36.9" height="108.1"/>
  <rect class="cls-1" x="176.74" y="253.31" width="36.9" height="34.57"/>
</svg>