<?xml version="1.0" encoding="UTF-8"?>
<svg id="Layer_1" data-name="Layer 1" xmlns="http://www.w3.org/2000/svg" viewBox="0 0 393.42 393.42">
  <defs>
    <style>
      .cls-1 {
        fill: #afafaf;
      }
    </style>
  </defs>
  <path class="cls-1" d="M344.34,373.15H47.91c-13.59,0-24.65-11.06-24.65-24.65V52.07c0-13.59,11.06-24.65,24.65-24.65h296.43c13.59,0,24.65,11.06,24.65,24.65v296.43c0,13.59-11.06,24.65-24.65,24.65ZM47.91,44.07c-4.34,0-8,3.66-8,8v296.43c0,4.41,3.59,8,8,8h296.43c4.41,0,8-3.59,8-8V52.07c0-4.41-3.59-8-8-8H47.91Z"/>
  <rect class="cls-1" x="124.22" y="180.18" width="143.54" height="40.21"/>
</svg>