<?xml version="1.0" encoding="UTF-8"?>
<svg id="Layer_1" data-name="Layer 1" xmlns="http://www.w3.org/2000/svg" viewBox="0 0 393.42 393.42">
  <defs>
    <style>
      .cls-1 {
        fill: #56a64b;
      }
    </style>
  </defs>
  <path class="cls-1" d="M196.74,370.33c-95.34,0-172.9-77.56-172.9-172.9S101.41,24.6,196.74,24.6c46.17,0,89.57,17.97,122.21,50.6,32.65,32.64,50.63,76.05,50.63,122.23s-17.97,89.62-50.6,122.26c-32.63,32.65-76.04,50.63-122.23,50.63ZM196.74,41.25c-86.15,0-156.25,70.06-156.25,156.18s70.09,156.25,156.25,156.25c41.74,0,80.97-16.25,110.46-45.75,29.49-29.5,45.72-68.74,45.72-110.49s-16.25-80.97-45.75-110.46c-29.49-29.48-68.71-45.72-110.43-45.72Z"/>
  <polygon class="cls-1" points="107.56 174.84 166.95 231.24 285.27 113.98 310.35 139.33 167.48 280.94 83 200.72 107.56 174.84"/>
</svg>