<?xml version="1.0" encoding="UTF-8"?>
<svg id="Layer_1" data-name="Layer 1" xmlns="http://www.w3.org/2000/svg" viewBox="0 0 393.42 393.42">
  <defs>
    <style>
      .cls-1 {
        fill: #f2cc0f;
      }
    </style>
  </defs>
  <path class="cls-1" d="M364.35,373.07H28.7c-11.25,0-20.25-4.42-24.69-12.14-4.44-7.71-3.75-17.71,1.9-27.44L173.72,42.85c5.58-9.74,13.89-15.35,22.78-15.36h.04c8.89,0,17.22,5.6,22.86,15.36l167.83,290.67c5.61,9.73,6.27,19.74,1.82,27.44-4.45,7.7-13.45,12.12-24.69,12.12ZM196.53,44.15h0c-2.73,0-5.86,2.63-8.37,7.01L20.31,341.84c-2.55,4.39-3.25,8.42-1.88,10.79,1.37,2.38,5.2,3.79,10.26,3.79h335.65c5.06,0,8.9-1.42,10.28-3.8,1.38-2.38.69-6.41-1.83-10.79L204.97,51.18c-2.55-4.41-5.7-7.04-8.44-7.04Z"/>
  <rect class="cls-1" x="177.94" y="180" width="36.9" height="69.15"/>
  <rect class="cls-1" x="177.94" y="281.4" width="36.9" height="34.57"/>
</svg>