<?xml version="1.0" encoding="UTF-8"?>
<svg id="svg2" xmlns="http://www.w3.org/2000/svg" xmlns:svg="http://www.w3.org/2000/svg" xmlns:sodipodi="http://sodipodi.sourceforge.net/DTD/sodipodi-0.dtd" xmlns:rdf="http://www.w3.org/1999/02/22-rdf-syntax-ns#" xmlns:inkscape="http://www.inkscape.org/namespaces/inkscape" xmlns:dc="http://purl.org/dc/elements/1.1/" xmlns:cc="http://creativecommons.org/ns#" version="1.1" viewBox="0 0 246 331.9">
  <!-- Generator: Adobe Illustrator 30.0.0, SVG Export Plug-In . SVG Version: 2.1.1 Build 123)  -->
  <defs>
    <style>
      .st0, .st1 {
        fill: #f7e4cd;
      }

      .st2, .st3, .st4, .st1, .st5, .st6, .st7, .st8, .st9, .st10, .st11, .st12 {
        fill-rule: evenodd;
      }

      .st2, .st13 {
        fill: #fff;
      }

      .st3 {
        fill: #dcd9d8;
      }

      .st4 {
        fill: #d33833;
      }

      .st14, .st6 {
        fill: #231f20;
      }

      .st5 {
        fill: #81b0c4;
      }

      .st15 {
        fill: none;
        stroke: #d33833;
        stroke-miterlimit: 5;
        stroke-width: 2.5px;
      }

      .st7 {
        fill: #49728b;
      }

      .st16, .st10 {
        fill: #ef3d3a;
      }

      .st8 {
        fill: #f0d6b7;
      }

      .st9 {
        fill: #335061;
      }

      .st11 {
        fill: #6d6b6d;
      }

      .st12 {
        fill: #1d1919;
      }
    </style>
  </defs>
  <sodipodi:namedview id="namedview4" bordercolor="#666666" borderopacity="1" fit-margin-bottom="10" fit-margin-left="10" fit-margin-right="10" fit-margin-top="10" gridtolerance="10" guidetolerance="10" inkscape:current-layer="g10" inkscape:cx="604.50836" inkscape:cy="182.53093" inkscape:pageopacity="0" inkscape:pageshadow="2" inkscape:window-height="824" inkscape:window-maximized="0" inkscape:window-width="1881" inkscape:window-x="2091" inkscape:window-y="541" inkscape:zoom="1" objecttolerance="10" pagecolor="#ffffff" showgrid="false"/>
  <g id="g10" inkscape:groupmode="layer" inkscape:label="ink_ext_XXXXXX">
    <g id="g3393">
      <path id="path22" class="st4" d="M232.1,160.3c0,61.8-49,111.9-109.4,111.9S13.4,222.1,13.4,160.3,62.4,48.4,122.8,48.4s109.4,50.1,109.4,111.9" inkscape:connector-curvature="0"/>
      <path id="path24" class="st16" d="M17.9,188s-7.9-116.7,99.6-120l-7.5-12.5-58.3,19.6-16.7,19.2-14.6,27.9-8.3,32.5,2.5,21.7" inkscape:connector-curvature="0"/>
      <path id="path26" class="st14" d="M47.9,84c-19.2,19.6-31.1,46.7-31.1,76.7h0c0,30,11.9,57.1,31.1,76.7h0c19.2,19.6,45.7,31.7,74.9,31.7h0c29.3,0,55.7-12.1,74.9-31.7h0c19.2-19.6,31.1-46.7,31.1-76.7h0c0-30-11.9-57.1-31.1-76.7h0c-19.2-19.6-45.7-31.7-74.9-31.7h0c-29.3,0-55.7,12.1-74.9,31.7h0ZM43,242.2c-20.4-20.9-33-49.7-33-81.5h0c0-31.8,12.6-60.6,33-81.5h0c20.4-20.9,48.6-33.8,79.8-33.8h0c31.2,0,59.4,12.9,79.8,33.8h0c20.4,20.9,33,49.7,33,81.5h0c0,31.8-12.6,60.6-33,81.5h0c-20.4,20.9-48.6,33.8-79.8,33.8h0c-31.2,0-59.4-12.9-79.8-33.8h0" inkscape:connector-curvature="0"/>
      <path id="path28" class="st8" d="M168.8,160.9l-16.7,2.5-22.5,2.5-14.6.4-14.2-.4-10.8-3.3-9.6-10.4-7.5-21.2-1.7-4.6-10-3.3-5.8-9.6-4.2-13.8,4.6-12.1,10.8-3.8,8.8,4.2,4.2,9.2,5-.8,1.7-2.1-1.7-9.6-.4-12.1,2.5-16.7v-9.5c0,0,7.5-12.1,7.5-12.1l13.3-9.6,23.3-10,25.8,3.8,22.5,16.2,10.4,16.7,6.7,12.1,1.7,30-5,25.8-9.2,22.9-8.8,12.1" inkscape:connector-curvature="0"/>
      <path id="path30" class="st9" d="M154.6,233l-59.6,2.5v10l5,35-2.5,2.9-41.7-14.2-2.9-5-4.2-47.1-9.6-28.3-2.1-6.7,33.3-22.9,10.4-4.2,9.2,11.2,7.9,7.1,9.2,2.9,4.2,1.2,5,21.7,3.8,4.6,9.6-3.3-6.7,12.9,36.3,17.1-4.6,2.5" inkscape:connector-curvature="0"/>
      <path id="path32" class="st11" d="M55.9,87.6l10.8-3.8,8.8,4.2,4.2,9.2,5-.8,1.2-5-2.5-9.6,2.5-22.9-2.1-12.5,7.5-8.8,16.2-12.9-4.6-6.2-22.9,11.2-9.6,7.5-5.4,11.7-8.3,11.2-2.5,13.3,1.7,14.2" inkscape:connector-curvature="0"/>
      <path id="path34" class="st3" d="M73,48.4s6.2-15.4,31.2-22.9c25-7.5,1.2-5.4,1.2-5.4l-27.1,10.4-10.4,10.4-4.6,8.3,9.6-.8" inkscape:connector-curvature="0"/>
      <path id="path36" class="st3" d="M60.5,84.6s-8.8-29.2,24.6-33.3l-1.2-5-22.9,5.4-6.7,21.7,1.7,14.2,4.6-2.9" inkscape:connector-curvature="0"/>
      <path id="path38" class="st1" d="M73.8,123.4l5.5-5.3s2.5.3,2.9,3.2c.4,2.9,1.7,29.2,19.6,43.3,1.6,1.3-13.3-2.1-13.3-2.1l-13.3-20.8" inkscape:connector-curvature="0"/>
      <path id="path40" class="st1" d="M150.5,115.5s1-12.6,4.4-11.7c3.4,1,3.4,4.4,3.4,4.4,0,0-8.3,5.3-7.8,7.3" inkscape:connector-curvature="0"/>
      <path id="path42" class="st0" d="M185.1,69.2s-6.9,1.5-7.5,7.5c-.6,6.1,7.5,1.2,8.8.8" inkscape:connector-curvature="0"/>
      <path id="path44" class="st0" d="M134.6,69.6s-9.2,1.2-9.2,7.1,10.4,5.4,13.3,2.9" inkscape:connector-curvature="0"/>
      <path id="path46" class="st1" d="M78,96.7s-15.8-9.6-17.5-.4c-1.7,9.2-5.4,15.8,2.5,25.4l-5.4-1.7-5-12.9-1.7-12.5,9.6-10,10.8.8,6.2,5,.4,6.2" inkscape:connector-curvature="0"/>
      <path id="path48" class="st1" d="M85.5,70.5s7.1-36.7,42.9-43.8c29.5-5.8,45,1.2,50.8,7.9,0,0-26.2-31.2-51.3-21.7-25,9.6-43.3,27.1-42.9,38.3.7,19.2.4,19.2.4,19.2" inkscape:connector-curvature="0"/>
      <path id="path50" class="st1" d="M182.1,38.8s-12.1-.4-12.5,10.4c0,0,0,1.7.8,3.3,0,0,9.6-10.8,15.4-5" inkscape:connector-curvature="0"/>
      <path id="path52" class="st1" d="M129.2,53.7s-2.1-16.6-16.3-7c-9.2,6.2-8.3,15-6.7,16.7,1.7,1.7,1.2,5,2.5,2.7,1.3-2.3.9-9.8,5.4-11.9,4.6-2.1,12.1-4.4,15-.5" inkscape:connector-curvature="0"/>
      <path id="path54" class="st7" d="M90.1,166.3l-39.2,17.5s16.2,64.6,7.9,84.6l-5.8-2.1-.4-24.6-10.8-46.7-4.6-12.9,40.8-27.5,12.1,11.7" inkscape:connector-curvature="0"/>
      <path id="path56" class="st7" d="M94.1,202l5.6,6.8v25h-6.7s-.8-17.5-.8-19.6.8-9.6.8-9.6" inkscape:connector-curvature="0"/>
      <path id="path58" class="st7" d="M94.2,237.6l-18.8.8,5.4,3.8,13.3,2.1" inkscape:connector-curvature="0"/>
      <path id="path60" class="st9" d="M158.4,233.4l15.4-.4,3.8,38.3-15.8,2.1-3.3-40" inkscape:connector-curvature="0"/>
      <path id="path62" class="st9" d="M162.6,233.4l23.3-1.2s9.6-24.2,9.6-25.4,8.3-35,8.3-35l-18.8-19.6-3.8-3.3-10,10v38.8l-8.8,35.8" inkscape:connector-curvature="0"/>
      <path id="path64" class="st7" d="M173,230.5l-14.6,2.9,2.1,11.7c5.4,2.5,14.6-4.2,14.6-4.2" inkscape:connector-curvature="0"/>
      <path id="path66" class="st7" d="M173.4,157.6l29.2,21.7.8-10-22.1-20.4-7.9,8.8" inkscape:connector-curvature="0"/>
      <path id="path68" class="st2" d="M108.7,315.5l-8.6-35-4.3-25.8-.7-19.2,39-2.1h24.3s-2.2,43.8-2.2,43.8l3.8,33.7-.4,6.2-31.7,2.5-19.2-4.2" inkscape:connector-curvature="0"/>
      <path id="path70" class="st3" d="M153,233s-2.1,43.3,4.2,74.2c0,0-12.5,7.9-30.8,10l35-1.2,4.2-2.5-5-68.3-1.2-14.6" inkscape:connector-curvature="0"/>
      <path id="path72" class="st2" d="M178.3,268l16.2-4.6,30.8-1.7,4.6-14.2-8.3-24.6-9.6-1.2-13.3,4.2-12.8,6.2-6.8-1.2-5.3,2.1" inkscape:connector-curvature="0"/>
      <path id="path74" class="st3" d="M178,259.6s10.8-5,12.5-4.6l-4.6-22.9,5.4-2.1s3.8,21.7,3.8,24.2c0,0,23.3,1.2,25.4,1.2,0,0,5-9.6,3.8-19.6l4.6,13.3.4,7.5-6.7,10-7.5,1.7-12.5-.4-4.2-5.4-14.6,2.1-4.6,1.7" inkscape:connector-curvature="0"/>
      <path id="path76" class="st13" d="M161.6,230.1l-9.2-23.3-9.6-13.8s2.1-5.8,5-5.8h9.6l9.2,3.3-.8,15.4-4.2,24.2" inkscape:connector-curvature="0"/>
      <path id="path78" class="st3" d="M163.4,222.1s-11.7-22.5-11.7-25.8c0,0,2.1-5,5-3.8s9.2,4.6,9.2,4.6v-7.9l-14.2-2.9-9.6,1.2,16.2,38.3,3.3.4" inkscape:connector-curvature="0"/>
      <path id="path80" class="st13" d="M112.4,167.2l-11.5-1.3-10.8-3.3v3.8l5.3,5.8,16.7,7.5" inkscape:connector-curvature="0"/>
      <path id="path82" class="st3" d="M93.8,168.4s12.9,5.4,17.1,4.2l.4,5-11.7-2.5-7.1-5,1.2-1.7" inkscape:connector-curvature="0"/>
      <path id="path84" class="st4" d="M178.2,188.6c-7.1-.2-13.5-1-19-2.6.4-2.3-.3-4.5.2-6.2,1.6-1.1,4.2-1.1,6.5-1.4-2-1-4.9-1.4-7.3-.8,0-1.6-.8-2.6-1.2-3.8,4-1.4,13.4-10.7,18.6-7.6,2.5,1.5,3.6,9.8,3.8,13.9.2,3.4-.3,6.8-1.7,8.6" inkscape:connector-curvature="0"/>
      <path id="path86" class="st15" d="M178.2,188.6c-7.1-.2-13.5-1-19-2.6.4-2.3-.3-4.5.2-6.2,1.6-1.1,4.2-1.1,6.5-1.4-2-1-4.9-1.4-7.3-.8,0-1.6-.8-2.6-1.2-3.8,4-1.4,13.4-10.7,18.6-7.6,2.5,1.5,3.6,9.8,3.8,13.9.2,3.4-.3,6.8-1.7,8.6Z" inkscape:connector-curvature="0"/>
      <path id="path88" class="st4" d="M144.4,177c0,.5,0,1.1,0,1.6-2.2,1.5-5.8,1.4-8.2,2.7,3.6.2,6.4,1,8.8,2.2,0,1.3-.1,2.7-.2,4-4,2.8-7.7,6.9-12.5,9.5-2.3,1.2-10.2,4.4-12.6,3.8-1.4-.3-1.5-2-2-3.6-1.2-3.4-3.8-8.8-4-13.9-.3-6.5-.9-17.3,6-16,5.6,1.1,12.1,3.7,16.5,6,2.7,1.5,4.2,3.2,8.2,3.6" inkscape:connector-curvature="0"/>
      <path id="path90" class="st15" d="M144.4,177c0,.5,0,1.1,0,1.6-2.2,1.5-5.8,1.4-8.2,2.7,3.6.2,6.4,1,8.8,2.2,0,1.3-.1,2.7-.2,4-4,2.8-7.7,6.9-12.5,9.5-2.3,1.2-10.2,4.4-12.6,3.8-1.4-.3-1.5-2-2-3.6-1.2-3.4-3.8-8.8-4-13.9-.3-6.5-.9-17.3,6-16,5.6,1.1,12.1,3.7,16.5,6,2.7,1.5,4.2,3.2,8.2,3.6Z" inkscape:connector-curvature="0"/>
      <path id="path92" class="st4" d="M148.4,184.7c-.6-3.5-1.3-4.5-1.1-7.6,9.4-6.3,11.1,10.7,1.1,7.6" inkscape:connector-curvature="0"/>
      <path id="path94" class="st15" d="M148.4,184.7c-.6-3.5-1.3-4.5-1.1-7.6,9.4-6.3,11.1,10.7,1.1,7.6Z" inkscape:connector-curvature="0"/>
      <path id="path96" class="st10" d="M162,187.6s-2.9-4.2-.8-5.4,4.2,0,5.4-2.1,0-3.3.4-5.8,2.5-2.9,4.6-3.3,7.9-1.2,8.8.8l-2.5-7.5-5-1.7-15.8,9.2-.8,4.6v9.2" inkscape:connector-curvature="0"/>
      <path id="path98" class="st10" d="M118.3,201.3c-.5-6.5-1-13-1.6-19.5-.9-9.7,2.3-8,10.7-8s7.9,1.5,8.4,2.5c2.3,4.6-3.8,3.6,2.6,7.1,5.4,3,15-1.8,12.8-8.4-1.2-1.5-6.4-.5-8.2-1.4-3.3-1.7-6.5-3.4-9.8-5.1-4.1-2.1-13.7-5.3-18.1-2.3-11.2,7.6.7,26.6,4.7,34.6" inkscape:connector-curvature="0"/>
      <path id="path100" class="st6" d="M129.2,53.7c-11.4-2.6-17,4.8-20.4,12.4-3.1-.7-1.9-4.9-1.1-7.1,2-5.6,10.2-13,16.9-12,2.9.4,6.8,3.1,4.6,6.7" inkscape:connector-curvature="0"/>
      <path id="path102" class="st6" d="M184.6,66.6c.2,0,.4,0,.5,0,2.6,5.3,4.8,11,8,15.7-2.2,5.1-16.4,9.5-16.2.5,3.1-1.3,8.4-.3,11.1-2-1.6-4.3-3.9-8-3.5-14.2" inkscape:connector-curvature="0"/>
      <path id="path104" class="st6" d="M135.1,66.8c2.4,4.5,3.2,9.2,6.7,12.5,1.6,1.5,4.6,3.4,3.1,7.6-.4,1-2.9,3.2-4.4,3.7-5.4,1.6-18,.3-13.8-6.4,4.5.2,10.5,2.9,13.8-.3-2.6-4.1-7.1-12.2-5.5-17" inkscape:connector-curvature="0"/>
      <path id="path106" class="st6" d="M182.5,112.1c-8.1,5.2-17.2,10.9-30.6,9.6-2.9-2.5-3.9-8-1.2-11.6,1.4,2.5.5,7,4.6,7.7,7.6,1.3,16.4-4.6,21.8-6.7,3.4-5.7-.3-7.8-3.3-11.5-6.2-7.5-14.6-16.8-14.3-28.1,2.5-1.8,2.7,2.8,3.1,3.6,3.3,7.6,11.4,17.4,17.4,23.9,1.5,1.6,3.9,3.1,4.2,4.2.8,3.1-2,6.8-1.7,8.8" inkscape:connector-curvature="0"/>
      <path id="path108" class="st6" d="M75.1,106.6c-2.6-1.5-3.2-7.9-6.2-8.1-4.3-.3-3.5,8.3-3.5,13.4-2.9-2.7-3.5-10.9-1.3-15.2-2.5-1.2-3.6,1.3-4.9,2.2,1.8-12.8,18.7-5.9,15.9,7.6" inkscape:connector-curvature="0"/>
      <path id="path110" class="st6" d="M187.7,117.5c-3.8,7.2-9.2,15.2-20.3,15.4-.2-2.3-.4-5.9,0-7.3,8.5-.8,13.8-5.1,20.3-8.1" inkscape:connector-curvature="0"/>
      <path id="path112" class="st6" d="M134.4,122.1c7.1,3.7,20.1,4.1,29.8,3.9.5,2.1.5,4.7.5,7.3-12.4.6-27.1-2.5-30.3-11.2" inkscape:connector-curvature="0"/>
      <path id="path114" class="st6" d="M133.1,129.1c4.9,12.3,21.8,10.9,36,10.6-.6,1.6-2,3.5-3.7,4.2-4.6,1.9-17.1,3.3-23.5,0-4-2.1-6.6-7-8.8-9.8-1.1-1.4-6.4-4.9,0-4.9" inkscape:connector-curvature="0"/>
      <path id="path116" class="st5" d="M181.9,197.1c-5.8,9.9-11.3,20-18.1,28.7,2.9-8.4,4.1-22.5,4.5-33.3,6-2.8,11.1.6,13.6,4.6" inkscape:connector-curvature="0"/>
      <path id="path118" class="st6" d="M212.9,232.5c-6.4,1.3-11,7.6-17.3,7.2,3.5-4.9,9.5-6.9,17.3-7.2" inkscape:connector-curvature="0"/>
      <path id="path120" class="st6" d="M215.8,242.6c-5.3.6-11.4,1.4-16.8,1,2.5-3.9,12.2-2.5,16.8-1" inkscape:connector-curvature="0"/>
      <path id="path122" class="st6" d="M217.6,251.3c-5.9.1-13.3,0-18.9-.5,3.3-3.6,15-1.3,18.9.5" inkscape:connector-curvature="0"/>
      <path id="path124" class="st3" d="M170.8,275.1c.8,7.4,3.8,14.9,3.4,23.1-3.3,1.1-5.1,2.1-9.5,2.1-.3-6.9-1.2-17.5-1-24,2.2.1,5.3-1.5,7.1-1.1" inkscape:connector-curvature="0"/>
      <path id="path126" class="st8" d="M161.3,165.8c-3,1.9-5.5,4.4-8.3,6.4-6.3.3-9.8-.4-14.4-4.1,0-.3.5-.2.6-.5,6.8,3,15.4-1.2,22.2-1.8" inkscape:connector-curvature="0"/>
      <path id="path128" class="st5" d="M125.8,211.9c1.9-8.1,9.1-12.2,15.7-16.7,6.8,8.7,11,19.8,15.5,30.5-10.8-3.3-21.8-8.5-31.3-13.9" inkscape:connector-curvature="0"/>
      <path id="path130" class="st6" d="M163.8,276.2c-.3,6.6.6,17.1,1,24,4.4,0,6.3-1,9.5-2.1.4-8.1-2.6-15.6-3.4-23.1-1.7-.5-4.9,1.2-7.1,1.1ZM95.6,238.8c2.9,26.5,7.1,48.8,14.7,72.3,17,5.2,37.5,5.6,52.6,1-2.8-13.3-1.6-29.4-3.2-43.5-1.2-10.6-.6-21.3-2.3-32.2-18.2-3.8-44-.9-61.9,2.5ZM161.8,236.5c-.2,11.4.5,22.6,1.4,34,4.4-.7,7.3-1.1,11.4-2-1.3-11-1.2-23.3-3.8-33.1-3.1,0-5.8,0-8.9,1ZM184,234.6c-2.1-.5-4.5,0-6.5,0,.9,9.3,3.2,19.5,4,29.3,3.1,0,4.8-1.4,7.4-1.9.1-8.6-.7-20.3-4.9-27.4h0ZM217.6,265.3c6.5-1.6,10.6-9.5,8.8-17.7-1.2-5.5-3.4-15.9-5.7-19.4-1.7-2.6-6.4-6-10.1-3.6-6.1,3.9-16.7,5-21.1,9.7,2.2,7.4,2.9,17.5,3.8,26.8,7.6.5,16.9-2.1,23.2.6-4.4,1.4-10.1,1.4-13.9,3.5,3.1,1.5,10.4,1.2,15.1,0h0ZM157.1,225.8c-4.6-10.7-8.7-21.9-15.5-30.5-6.6,4.4-13.9,8.6-15.7,16.7,9.5,5.4,20.5,10.6,31.3,13.9ZM168.4,192.5c-.4,10.7-1.7,24.8-4.5,33.3,6.8-8.7,12.3-18.8,18.1-28.7-2.5-3.9-7.6-7.4-13.6-4.6ZM155.6,188c-2.6-.3-4.8,3-8.2,1.6-.8.9-1.5,1.8-2.3,2.6,7.4,9,10.8,21.7,16.6,32.2,3.1-10.1,2.7-21.2,3.4-32.2-4.2.3-6.6-3.8-9.5-4.1ZM147.4,177.1c-.3,3.1.4,4.1,1.1,7.6,10.1,3.2,8.3-13.8-1.1-7.6ZM136.2,173.5c-4.3-2.4-10.9-5-16.5-6-7-1.3-6.3,9.5-6,16,.2,5.1,2.9,10.5,4,13.9.5,1.6.7,3.3,2,3.6,2.4.6,10.3-2.6,12.6-3.8,4.8-2.6,8.5-6.7,12.5-9.5,0-1.3.1-2.7.2-4-2.4-1.2-5.2-2.1-8.8-2.2,2.4-1.2,6-1.2,8.2-2.7,0-.5,0-1.1,0-1.6-4-.3-5.6-2.1-8.2-3.6ZM94.7,165.9c-3.6,3.7,10.1,8.7,14.5,8.9,0-2.3,1.3-4.5,1-6.2-5.2-.9-12-.3-15.5-2.8ZM139.1,167.6c0,.4-.5.2-.6.5,4.6,3.6,8.1,4.4,14.4,4.1,2.8-2.1,5.4-4.5,8.3-6.4-6.8.6-15.4,4.9-22.2,1.8ZM179.9,180c-.2-4.1-1.3-12.4-3.8-13.9-5.3-3.1-14.7,6.2-18.6,7.6.4,1.2,1.1,2.2,1.2,3.8,2.4-.6,5.2-.2,7.3.8-2.4.3-5,.2-6.5,1.4-.6,1.7.1,3.9-.2,6.2,5.6,1.6,12,2.4,19,2.6,1.4-1.8,1.8-5.2,1.7-8.6ZM88.6,169.5c-1.1-.8-8.8-10.8-9.8-10.4-13.9,5.5-26.8,14.9-38.4,23.9,11,23.7,15.5,52.7,16.3,80.7,12.7,5.9,23.8,14.5,40.9,15.3-2-14.1-3.8-26.6-4.9-39.8-4.3-1.8-10.5,0-14.5-.6,0-4.9,6.2-2.1,6.7-5.4.4-2.5-3.4-2.7-2.2-6.6,3.2,1.1,4.8,3.7,8.2,4.6,3.1-6.7,0-18.6.4-24.3,0-1.1.5-5.9,2.9-5,2.1.7-.1,12.8.1,18.1.2,4.9-.6,9.7,1.4,12.7,16.6-2.3,33.5-3.7,51.4-4.2-4-1.7-8.6-3.3-13.8-6.2-2.8-1.6-11.6-4.8-12.4-7.5-1.3-4.2,3.4-6.5,4.2-10.1-8.4,4.6-10-4.4-12-10.7-1.8-5.7-2.8-10-3.3-13.3-7.2-3.4-14.9-6.9-21.1-11.3h0ZM172.6,160.3c11.6-5.6,13.6,20.9,9.1,29.5.7,2.6,3.1,3.5,4.1,5.8-6.4,11.5-13.6,22.3-20.2,33.7,4.9-3,11.9-.5,17.6-2.8,2.1-.8,3.6-5.7,5.2-9.5,4.4-10.6,9-24,11-34.1.5-2.3,1.7-7.3,1.4-9.4-.5-3.7-5.5-6.4-8-8.7-4.7-4.2-7.6-7.9-12.5-11.8-2,2.9-6.2,4.9-7.8,7.3h0ZM62.2,57.8c-5.5,6.1-4.4,17.4-3.7,25.5,10-6.3,23.2.5,23,11.1,4.8-.1,1.8-5.9.9-9.7-2.8-12.2,4.7-25.5.3-36.7-8.5.6-15.5,4.1-20.6,9.7h0ZM101.6,22.7c-12.5,3.5-28.4,12.6-33.6,23.8,4-.6,6.7-2.6,10.6-2.8,1.5,0,3.4.6,5.1.2,3.4-.8,6.2-8.4,8.8-11.3,2.5-2.8,5.5-3.9,7.5-6.5,1.3-.6,3.3-.6,3.3-2.6-.6-.6-1.2-1.1-1.9-.9ZM166.5,26c-12.9-7.3-34.8-12.8-48.6-5.9-11.1,5.5-26.1,14.7-31.2,26.3,4.8,11.2-1.4,21.5-1.8,32.8-.2,6.1,2.8,11.3,3.1,17.9-1.6,2.7-6.6,3-10.1,2.8-1.2-5.8-3.2-12.4-9.2-13-8.5-.9-14.7,6.1-15.1,13.4-.5,8.6,6.6,23,16.7,22,3.9-.4,4.8-4.3,9.1-4.2,2.3,4.6-3.5,6-4.1,9.3-.2.8.5,4.1.9,5.7,1.8,7.5,5.9,17.3,9.9,23,5.1,7.3,15.1,8.4,25.8,9.1,1.9-4.1,9-3.8,13.6-2.7-5.5-2.2-10.7-7.5-14.9-12.2-4.9-5.4-9.8-11.2-10.1-18.2,9.2,12.8,16.9,24,33.6,29.6,12.7,4.3,27.5-2,37.3-8.8,4.1-2.8,6.5-7.4,9.3-11.5,10.8-15.5,15.8-37.6,14.7-59-.5-8.8-.4-17.6-3.4-23.6-3.1-6.2-13.6-11.8-19.7-6.2-1.1-6,5.1-9.8,12.4-7.6-5.2-6.7-10.7-14.9-18.1-19h0ZM190.6,225.5c10.1-5,29-13.5,35.3,0,2.3,5,5.1,13.4,6.3,18.6,1.7,7.3-1.9,22.6-9.3,25-6.6,2.2-14.3,2-22.3.4-.9-.8-2-2.1-2.7-3.6-5.7-.2-11,.3-15.5,2.6.4,4.2-2.4,4.9-5.1,5.7-2,7.8,3.9,18,2.5,25.2-1,5.1-7.3,5.9-11.9,6.8-.2,2.8.2,5.2.5,7.6-1.1,3.9-5.8,6.1-10.2,6.6-14.7,1.8-37,2.6-51.2-2.5-3.9-9.7-7.1-21.4-10.3-32.5-13.8,1.5-24.9-5.9-35.5-10.8-3.6-1.7-8.7-2.6-10-5.5-1.3-2.8-.8-8.2-1.1-13.3-.8-13-1.5-25.5-5-38.8-1.5-6-4.2-11.2-6.1-17-1.7-5.3-4.7-11.9-5.5-17.2-1.2-7.9,6.2-8.3,11-11.7,7.3-5.3,13.1-8.2,21-12.9,2.3-1.4,9.4-5,10.2-6.6,1.6-3.3-2.7-7.8-3.9-10.4-1.8-4-2.8-7.5-3.1-11.4-6.7-1.1-11.7-5-14.7-9.5-5-7.4-8.5-21.1-4.2-31.5.3-.8,2-2.4,2.3-3.7.5-2.5-.9-5.8-1-8.4-.5-13.5,2.3-25.2,11.4-29.2,3.7-14.7,16.9-19.6,29.4-26.9,4.7-2.7,9.8-4.5,15.1-6.4,19-7,48.2-5.7,64,6.3,6.7,5.1,17.4,15.7,21.2,23.5,10.1,20.4,9.4,54.5,2.3,79.4-.9,3.3-2.3,8.2-4.3,12.2-1.3,2.8-5.5,8.4-5,10.9.5,2.6,9.5,9.4,11.4,11.2,3.5,3.3,10.1,7.8,10.6,12,.6,4.5-2,10.6-3.3,15-4.3,14.5-8.5,27.8-13.4,40.7" inkscape:connector-curvature="0"/>
      <path id="path132" class="st1" d="M123.1,125.3c.5-.7,3.6-1.8,7.8.2,0,0-5,.8-4.6,9.2l-2.1-.4s-2.2-7.6-1.1-8.9" inkscape:connector-curvature="0"/>
      <path id="path134" class="st12" d="M159.6,196.9c0,1.3-1,2.3-2.3,2.3s-2.3-1-2.3-2.3,1-2.3,2.3-2.3,2.3,1,2.3,2.3" inkscape:connector-curvature="0"/>
      <path id="path136" class="st12" d="M161.9,207.6c0,1.3-1,2.3-2.3,2.3s-2.3-1-2.3-2.3,1-2.3,2.3-2.3,2.3,1,2.3,2.3" inkscape:connector-curvature="0"/>
    </g>
  </g>
</svg>