<?xml version="1.0" encoding="UTF-8"?>
<svg id="Layer_1" data-name="Layer 1" xmlns="http://www.w3.org/2000/svg" xmlns:xlink="http://www.w3.org/1999/xlink" viewBox="0 0 1099.47 370.03">
  <defs>
    <style>
      .cls-1 {
        fill: url(#linear-gradient);
      }

      .cls-2 {
        fill: #fff;
      }
    </style>
    <linearGradient id="linear-gradient" x1="165.2" y1="9.19" x2="165.2" y2="360.56" gradientUnits="userSpaceOnUse">
      <stop offset="0" stop-color="#7040be"/>
      <stop offset=".44" stop-color="#d82a5c"/>
      <stop offset=".69" stop-color="#ea7948"/>
    </linearGradient>
  </defs>
  <path class="cls-1" d="M242.62,170.92c-.24-3-.72-6.47-1.68-10.06-.96-3.83-2.52-7.79-4.55-12.22-2.16-4.19-4.91-8.75-8.63-13.18-1.32-1.68-3-3.47-4.55-4.91,2.52-9.95-3-18.45-3-18.45-9.47-.6-15.58,3-17.85,4.55-.36-.24-.72-.36-1.08-.36-1.56-.72-3.24-1.32-4.91-1.68s-3.47-.96-5.27-1.56c-1.68-.36-3.59-.72-5.51-1.08-.36,0-.6-.24-.96-.24-4.43-13.42-16.54-18.93-16.54-18.93-13.3,8.39-15.82,20.25-15.82,20.25,0,0,0,.24-.24.72l-2.16.6c-.96.36-2.16.72-3,1.2-.96.36-2.16.72-3,1.2-1.92.72-3.95,1.92-5.87,2.88-1.92,1.2-3.83,2.28-5.51,3.47-.36-.36-.6-.36-.6-.36-18.45-7.07-34.87,1.56-34.87,1.56-1.08,19.65,7.67,31.99,9.35,34.27-.36,1.2-.72,2.52-1.2,3.59-1.32,4.43-2.28,8.99-3,13.78-.24.6-.24,1.32-.24,2.16-16.89,8.27-22.05,25.4-22.05,25.4,14.26,16.42,30.67,17.37,30.67,17.37h0c2.16,3.83,4.55,7.19,7.19,10.66,1.2,1.32,2.28,2.64,3.59,3.95-5.15,14.86.72,27.08.72,27.08,15.82.6,26.24-6.83,28.4-8.63,1.56.6,3.24.96,4.79,1.56,4.79,1.32,9.95,1.92,14.86,2.28h6.23c7.43,10.66,20.61,12.22,20.61,12.22,9.35-9.95,9.95-19.65,9.95-21.69h0v-.6h0v-.36c1.92-1.32,3.83-2.88,5.51-4.43,3.83-3.47,7.07-7.19,9.71-11.38.24-.36.6-.72.72-1.08,10.54.6,17.85-6.47,17.85-6.47-1.68-11.02-8.03-16.42-9.35-17.37h-.36s-.24,0-.24-.24c0-.6.24-1.32.24-1.92,0-1.08.24-2.28.24-3.59v-4.55c0-.36,0-.6-.24-.96l-.24-.96-.24-.96c-.24-1.08-.36-2.52-.72-3.59-1.08-4.79-3-9.11-5.27-13.3-2.52-3.95-5.51-7.67-8.99-10.66s-7.19-5.51-11.26-7.19-8.15-3-12.34-3.47c-2.16-.24-4.19-.36-6.23-.36h-.96s-.36,0-.24,0h-2.16c-1.08,0-2.16.24-3.24.36-4.19.72-8.15,2.28-11.62,4.43s-6.47,4.79-8.99,7.67c-2.52,2.88-4.43,6.23-5.75,9.47s-2.16,6.83-2.28,10.3v4.91c.24,1.68.36,3.47.96,4.91.96,3.24,2.28,6.11,4.19,8.63s3.95,4.43,6.23,6.11c2.28,1.56,4.79,2.64,7.19,3.47s4.79.96,7.19.96h3.24c.36,0,.6-.24.72-.24s.6-.24.72-.24c.6-.24.96-.24,1.56-.36l2.88-1.08c.96-.36,1.68-.96,2.52-1.56.24-.24.36-.36.6-.36.72-.6.96-1.68.36-2.52s-1.56-.96-2.28-.36c-.24,0-.36.24-.6.36-.6.36-1.32.6-2.16.96l-2.28.6c-.36,0-.72.24-1.08.24h-2.52s-.24,0,0,0h-1.08c-1.68-.24-3.59-.72-5.27-1.56-1.32-.96-3-2.16-4.55-3.47s-2.88-3-3.83-4.79c-.96-1.68-1.68-3.83-2.16-6.11-.24-1.08-.24-2.28-.24-3.24v-.96h0v-.72c0-.6.24-1.08.24-1.68.72-4.79,3.24-9.35,6.83-12.82.96-.96,1.92-1.68,2.88-2.28.96-.72,2.16-1.32,3.24-1.92,1.08-.6,2.28-.96,3.59-1.32,1.32-.36,2.52-.6,3.83-.6h3.24c.24,0,0,0,0,0h.72c1.32.24,2.88.36,4.19.6,2.64.6,5.27,1.56,8.03,3,4.91,2.88,9.11,7.07,11.86,12.22,1.32,2.64,2.28,5.27,2.64,8.15.24.72.24,1.56.24,2.16v4.55c0,.72-.24,1.56-.24,2.28-.24.72-.24,1.56-.36,2.28l-.6,2.28c-.36,1.56-.96,3-1.56,4.55-1.08,2.88-2.64,5.75-4.55,8.39-3.83,5.15-8.99,9.35-14.62,11.98-2.88,1.32-6.11,2.28-9.11,2.88-1.56.24-3.24.36-4.79.36h-2.28c.24,0,0,0,0,0h-.24c-.96,0-1.68,0-2.52-.24-3.47-.24-6.83-.72-10.06-1.68s-6.47-2.28-9.59-3.83c-6.11-3.24-11.38-7.67-15.58-12.94-2.16-2.64-3.95-5.51-5.51-8.63-1.56-3-2.64-6.11-3.59-9.35-.96-3.24-1.56-6.47-1.68-9.95v-3.83h0v-1.56c0-1.68.24-3.24.36-4.91s.6-3.47.72-5.15.72-3.47,1.2-4.91c.96-3.24,2.16-6.47,3.47-9.35,2.88-5.87,6.47-11.26,10.66-15.46,1.2-1.2,2.28-2.16,3.47-3,1.2-.96,2.28-1.92,3.59-2.64s2.52-1.56,3.83-2.28c.6-.36,1.32-.72,1.92-.96.36-.24.72-.36.96-.36s.72-.36.96-.36c1.32-.6,2.88-1.2,4.19-1.56.36-.24.72-.24,1.08-.36s.72-.24,1.08-.36l2.28-.6c.36,0,.72-.24,1.08-.24s.72-.24,1.08-.24.72-.24,1.08-.24h1.08c.36,0,.72-.24,1.08-.24s.72,0,1.32-.24c.36,0,.96-.24,1.32-.24h3.83s.24,0,0,0h5.75c2.88.24,5.75.36,8.39.96,5.27.96,10.54,2.64,15.1,4.91s8.75,4.91,12.34,8.03l.6.6.6.6c.36.36.72.72,1.32,1.2s.72.72,1.08,1.2l1.08,1.2c1.56,1.68,2.88,3.24,4.19,4.91,2.52,3.24,4.55,6.71,6.23,9.71.24.24.24.36.36.6s.24.36.36.6l.6,1.2.6,1.2c.24.36.36.72.36,1.2.6,1.56,1.08,2.88,1.56,4.19.72,2.16,1.32,3.95,1.68,5.75.24.6.72,1.08,1.56.96.72,0,1.32-.6,1.32-1.32.84-2.28.72-4.31.48-6.83h0ZM165.35,64c-15.11,0-27.41-12.29-27.41-27.41s12.29-27.41,27.41-27.41,27.41,12.29,27.41,27.41-12.29,27.41-27.41,27.41ZM165.35,17.19c-10.7,0-19.41,8.71-19.41,19.41s8.71,19.41,19.41,19.41,19.41-8.71,19.41-19.41-8.71-19.41-19.41-19.41ZM165.35,360.56c-15.11,0-27.41-12.29-27.41-27.41s12.29-27.41,27.41-27.41,27.41,12.29,27.41,27.41-12.29,27.41-27.41,27.41ZM165.35,313.75c-10.7,0-19.41,8.71-19.41,19.41s8.71,19.41,19.41,19.41,19.41-8.71,19.41-19.41-8.71-19.41-19.41-19.41ZM36.88,137.52c-15.11,0-27.41-12.29-27.41-27.41s12.29-27.41,27.41-27.41,27.41,12.29,27.41,27.41-12.29,27.41-27.41,27.41ZM36.88,90.71c-10.7,0-19.41,8.71-19.41,19.41s8.71,19.41,19.41,19.41,19.41-8.71,19.41-19.41-8.71-19.41-19.41-19.41ZM293.52,137.52c-15.11,0-27.41-12.29-27.41-27.41s12.29-27.41,27.41-27.41,27.41,12.29,27.41,27.41-12.29,27.41-27.41,27.41ZM293.52,90.71c-10.7,0-19.41,8.71-19.41,19.41s8.71,19.41,19.41,19.41,19.41-8.71,19.41-19.41-8.71-19.41-19.41-19.41ZM36.88,285.47c-15.11,0-27.41-12.29-27.41-27.41s12.29-27.41,27.41-27.41,27.41,12.29,27.41,27.41-12.29,27.41-27.41,27.41ZM36.88,238.66c-10.7,0-19.41,8.71-19.41,19.41s8.71,19.41,19.41,19.41,19.41-8.71,19.41-19.41-8.71-19.41-19.41-19.41ZM293.52,285.47c-15.11,0-27.41-12.29-27.41-27.41s12.29-27.41,27.41-27.41,27.41,12.29,27.41,27.41-12.29,27.41-27.41,27.41ZM293.52,238.66c-10.7,0-19.41,8.71-19.41,19.41s8.71,19.41,19.41,19.41,19.41-8.71,19.41-19.41-8.71-19.41-19.41-19.41ZM73.74,93.01c-1.38,0-2.71-.71-3.46-1.98-1.12-1.91-.47-4.36,1.43-5.47l55.74-32.59c1.91-1.11,4.36-.47,5.47,1.43,1.12,1.91.47,4.36-1.43,5.47l-55.74,32.59c-.63.37-1.33.55-2.02.55ZM203.05,317c-1.38,0-2.71-.71-3.46-1.98-1.12-1.91-.47-4.36,1.43-5.47l55.74-32.59c1.91-1.11,4.36-.47,5.47,1.43,1.12,1.91.47,4.36-1.43,5.47l-55.74,32.59c-.63.37-1.33.55-2.02.55ZM128.93,317c-.68,0-1.36-.17-1.99-.53l-55.96-32.21c-1.91-1.1-2.57-3.55-1.47-5.46,1.1-1.91,3.55-2.57,5.46-1.47l55.96,32.21c1.91,1.1,2.57,3.55,1.47,5.46-.74,1.29-2.09,2-3.47,2ZM256.77,93.49c-.68,0-1.36-.17-1.99-.53l-55.96-32.21c-1.91-1.1-2.57-3.55-1.47-5.46,1.1-1.91,3.55-2.57,5.46-1.47l55.96,32.21c1.91,1.1,2.57,3.55,1.47,5.46-.74,1.29-2.09,2-3.47,2ZM36.55,221.34c-2.21,0-4-1.79-4-3.99l-.1-64.57c0-2.21,1.78-4,3.99-4.01h0c2.21,0,4,1.79,4,3.99l.1,64.57c0,2.21-1.78,4-3.99,4.01h0ZM293.08,221.34c-2.21,0-4-1.79-4-3.99l-.1-64.57c0-2.21,1.78-4,3.99-4.01h0c2.21,0,4,1.79,4,3.99l.1,64.57c0,2.21-1.78,4-3.99,4.01h0Z"/>
  <g>
    <path class="cls-2" d="M391.94,168.44c-5.43,0-10.35-1.04-14.73-3.13s-8.19-4.93-11.39-8.52c-3.21-3.59-5.68-7.63-7.42-12.12-1.74-4.49-2.61-9.11-2.61-13.85s.92-9.67,2.77-14.16c1.85-4.49,4.39-8.5,7.63-12.02,3.24-3.52,7.09-6.3,11.55-8.36,4.46-2.05,9.3-3.08,14.53-3.08s10.26,1.08,14.68,3.24c4.42,2.16,8.2,5.05,11.34,8.67,3.14,3.62,5.55,7.66,7.26,12.12,1.71,4.46,2.56,9.06,2.56,13.79s-.89,9.56-2.67,14.06c-1.78,4.49-4.28,8.5-7.52,12.02-3.24,3.52-7.07,6.29-11.5,8.31-4.43,2.02-9.25,3.03-14.47,3.03ZM370.41,130.82c0,3.21.49,6.31,1.46,9.3.97,3,2.39,5.66,4.23,7.99,1.84,2.34,4.11,4.18,6.79,5.54,2.68,1.36,5.73,2.04,9.14,2.04s6.65-.71,9.3-2.14c2.65-1.43,4.89-3.33,6.74-5.7,1.85-2.37,3.22-5.05,4.13-8.05.9-2.99,1.36-5.99,1.36-8.99,0-3.2-.49-6.29-1.46-9.25-.98-2.96-2.4-5.61-4.28-7.94-1.88-2.33-4.15-4.18-6.79-5.54-2.65-1.36-5.68-2.04-9.09-2.04s-6.46.72-9.14,2.14c-2.68,1.43-4.95,3.31-6.79,5.64-1.85,2.33-3.24,4.98-4.18,7.94-.94,2.96-1.41,5.97-1.41,9.04Z"/>
    <path class="cls-2" d="M543.47,113.16c-.49-.49-1.38-1.13-2.66-1.93-1.29-.8-2.86-1.62-4.7-2.46-1.85-.84-3.85-1.53-6.01-2.09-2.16-.56-4.36-.84-6.58-.84-3.9,0-6.85.71-8.83,2.13-1.99,1.42-2.98,3.48-2.98,6.19,0,2.01.63,3.61,1.88,4.78,1.25,1.18,3.13,2.18,5.64,3.02,2.51.83,5.64,1.73,9.41,2.7,4.88,1.18,9.11,2.62,12.7,4.32s6.34,3.92,8.26,6.66,2.88,6.39,2.88,10.97c0,3.88-.73,7.21-2.2,9.98s-3.47,5.04-6.01,6.81c-2.54,1.77-5.47,3.05-8.78,3.85-3.31.79-6.81,1.2-10.5,1.2s-7.38-.38-11.08-1.15-7.23-1.86-10.61-3.29c-3.38-1.43-6.53-3.15-9.46-5.17l6.38-12.44c.63.63,1.74,1.45,3.34,2.46,1.6,1.01,3.55,2.02,5.85,3.03,2.3,1.01,4.81,1.86,7.52,2.56,2.72.7,5.47,1.04,8.26,1.04,3.97,0,6.93-.64,8.88-1.91,1.95-1.27,2.93-3.15,2.93-5.63,0-2.22-.78-3.97-2.35-5.25-1.57-1.28-3.78-2.39-6.63-3.33-2.86-.94-6.24-1.92-10.14-2.97-4.74-1.32-8.66-2.81-11.76-4.47-3.1-1.67-5.43-3.73-7-6.19-1.57-2.46-2.35-5.57-2.35-9.31,0-5.07,1.22-9.31,3.66-12.75,2.44-3.43,5.71-6.03,9.82-7.8,4.11-1.77,8.67-2.66,13.69-2.66,3.48,0,6.77.38,9.88,1.15,3.1.77,6.01,1.78,8.73,3.03s5.15,2.61,7.31,4.08l-6.38,11.7Z"/>
    <path class="cls-2" d="M609.3,155.28v12.64h-51.52v-74.2h50.58v12.65h-36.16v17.87h31.14v11.7h-31.14v19.33h37.1Z"/>
    <path class="cls-2" d="M684.13,93.72l20.06,57.16,19.75-57.16h15.15l-28.01,74.2h-13.9l-28.22-74.2h15.15Z"/>
    <path class="cls-2" d="M865.75,167.92v-74.2h14.42v74.2h-14.42Z"/>
    <path class="cls-2" d="M890.1,167.92v-74.2h14.42v61.55h37.83v12.64h-52.25Z"/>
    <path class="cls-2" d="M945.59,167.92v-74.2h14.42v74.2h-14.42Z"/>
    <path class="cls-2" d="M1025.32,106.37h-23.62v61.55h-14.32v-61.55h-23.83v-12.65h61.76v12.65Z"/>
    <path class="cls-2" d="M1037.45,93.72l18.29,34.9,18.6-34.9h15.57l-26.96,48.28v25.92h-14.32v-26.13l-26.75-48.07h15.57Z"/>
    <path class="cls-2" d="M658.11,140.02c2.72-1.18,5.08-2.87,7.11-5.07,2.02-2.19,3.57-4.72,4.65-7.58,1.08-2.86,1.62-5.85,1.62-8.99s-.57-6.06-1.72-8.99c-1.15-2.93-2.79-5.57-4.91-7.94-2.13-2.37-4.63-4.25-7.52-5.64-2.89-1.39-6.01-2.09-9.35-2.09h-32.92v74.2h14.42v-24.87h0v-12.64h0v-24.04h17.56c1.74,0,3.34.52,4.81,1.57,1.46,1.04,2.68,2.47,3.66,4.28.97,1.81,1.46,3.87,1.46,6.17s-.42,4.25-1.25,6.06c-.84,1.81-1.95,3.26-3.34,4.34-1.39,1.08-3,1.62-4.81,1.62h-9.81l-4.99,12.64h11.14l15.26,24.87h15.88l-16.93-27.9Z"/>
    <path class="cls-2" d="M856.29,136.67c-2.47-3.27-5.84-5.54-10.08-6.79,3.48-1.6,6.13-3.99,7.94-7.16,1.81-3.17,2.72-6.53,2.72-10.08,0-3.14-.68-6.15-2.04-9.04-1.36-2.89-3.31-5.26-5.85-7.11-2.54-1.85-5.56-2.77-9.04-2.77h-39.71v74.2h14.43v-12.23h0v-19.65h22.15c1.67,0,3.15.45,4.44,1.36,1.29.91,2.32,2.11,3.08,3.61.77,1.5,1.15,3.19,1.15,5.07,0,1.74-.42,3.34-1.25,4.81s-1.97,2.63-3.4,3.5c-1.43.87-3.01,1.31-4.75,1.31h-13.1l-4.83,12.23h17.92c4.32,0,8.31-.73,11.97-2.19s6.57-3.61,8.73-6.43c2.16-2.82,3.24-6.29,3.24-10.4,0-4.88-1.24-8.95-3.71-12.23ZM841.45,120.37c-.8,1.39-1.86,2.47-3.19,3.24-1.33.77-2.79,1.15-4.39,1.15h-19.23v-18.71h19.86c1.53,0,2.91.4,4.13,1.2,1.22.8,2.19,1.88,2.93,3.24.73,1.36,1.1,3.01,1.1,4.96s-.4,3.52-1.2,4.91Z"/>
    <path class="cls-2" d="M489.79,136.49c-2.47-3.27-5.84-5.54-10.08-6.79,3.48-1.6,6.13-3.99,7.94-7.16,1.81-3.17,2.72-6.53,2.72-10.08,0-3.14-.68-6.15-2.04-9.04-1.36-2.89-3.31-5.26-5.85-7.11-2.54-1.85-5.56-2.77-9.04-2.77h-39.71v74.2h14.43v-12.23h0v-19.65h22.15c1.67,0,3.15.45,4.44,1.36,1.29.91,2.32,2.11,3.08,3.61.77,1.5,1.15,3.19,1.15,5.07,0,1.74-.42,3.34-1.25,4.81s-1.97,2.63-3.4,3.5c-1.43.87-3.01,1.31-4.75,1.31h-13.1l-4.83,12.23h17.92c4.32,0,8.31-.73,11.97-2.19s6.57-3.61,8.73-6.43c2.16-2.82,3.24-6.29,3.24-10.4,0-4.88-1.24-8.95-3.71-12.23ZM474.96,120.18c-.8,1.39-1.86,2.47-3.19,3.24-1.33.77-2.79,1.15-4.39,1.15h-19.23v-18.71h19.86c1.53,0,2.91.4,4.13,1.2,1.22.8,2.19,1.88,2.93,3.24.73,1.36,1.1,3.01,1.1,4.96s-.4,3.52-1.2,4.91Z"/>
    <polygon class="cls-2" points="770.34 93.72 755.71 93.72 728.33 167.92 743.17 167.92 749.37 149.42 771.04 149.42 767.03 139.29 752.77 139.29 763.03 108.67 772.48 137.04 772.49 137.04 777.2 151.17 777.19 151.17 782.78 167.92 797.62 167.92 770.34 93.72"/>
  </g>
  <g>
    <g>
      <path class="cls-2" d="M555.97,249.09c0-3.42.61-6.75,1.83-9.99,1.22-3.24,3-6.18,5.36-8.82,2.36-2.64,5.22-4.75,8.59-6.34s7.18-2.37,11.43-2.37c5.08,0,9.47,1.12,13.18,3.34,3.71,2.23,6.44,5.13,8.2,8.71l-8.16,5.67c-.93-2.07-2.15-3.71-3.65-4.9-1.5-1.19-3.12-2.05-4.86-2.57-1.74-.52-3.41-.78-5.01-.78-2.7,0-5.04.54-7.04,1.63-2,1.09-3.65,2.51-4.98,4.28-1.32,1.76-2.32,3.73-2.99,5.91-.67,2.18-1.01,4.38-1.01,6.61,0,2.38.39,4.7,1.17,6.96s1.88,4.25,3.3,5.99c1.42,1.74,3.13,3.11,5.13,4.12,2,1.01,4.18,1.52,6.57,1.52,1.66,0,3.37-.28,5.13-.85,1.76-.57,3.39-1.48,4.9-2.72,1.5-1.24,2.72-2.88,3.65-4.9l8.71,5.13c-1.14,2.75-2.94,5.08-5.4,7-2.46,1.92-5.21,3.37-8.24,4.35-3.03.99-6.05,1.48-9.06,1.48-3.94,0-7.53-.82-10.77-2.45s-6.05-3.81-8.44-6.53c-2.38-2.72-4.24-5.78-5.56-9.17-1.32-3.39-1.98-6.83-1.98-10.3Z"/>
      <path class="cls-2" d="M653.85,221.95v55.2h-10.65v-23.56h-25.03v23.56h-10.73v-55.2h10.73v22.31h25.03v-22.31h10.65Z"/>
      <path class="cls-2" d="M660.15,277.15v-55.2h10.73v55.2h-10.73Z"/>
      <path class="cls-2" d="M718.38,231.36h-17.57v45.79h-10.65v-45.79h-17.73v-9.41h45.95v9.41Z"/>
      <path class="cls-2" d="M758.42,267.74v9.41h-38.33v-55.2h37.63v9.41h-26.9v13.29h21.17l2,8.71h-23.17v14.38h27.6Z"/>
      <path class="cls-2" d="M757.25,249.09c0-3.42.61-6.75,1.83-9.99,1.22-3.24,3-6.18,5.36-8.82,2.36-2.64,5.22-4.75,8.59-6.34s7.18-2.37,11.43-2.37c5.08,0,9.47,1.12,13.18,3.34,3.71,2.23,6.44,5.13,8.2,8.71l-8.16,5.67c-.93-2.07-2.15-3.71-3.65-4.9-1.5-1.19-3.12-2.05-4.86-2.57-1.74-.52-3.41-.78-5.01-.78-2.7,0-5.04.54-7.04,1.63-2,1.09-3.65,2.51-4.98,4.28-1.32,1.76-2.32,3.73-2.99,5.91-.67,2.18-1.01,4.38-1.01,6.61,0,2.38.39,4.7,1.17,6.96s1.88,4.25,3.3,5.99c1.42,1.74,3.13,3.11,5.13,4.12,2,1.01,4.18,1.52,6.57,1.52,1.66,0,3.37-.28,5.13-.85,1.76-.57,3.39-1.48,4.9-2.72,1.5-1.24,2.72-2.88,3.65-4.9l8.71,5.13c-1.14,2.75-2.94,5.08-5.4,7-2.46,1.92-5.21,3.37-8.24,4.35-3.03.99-6.05,1.48-9.06,1.48-3.94,0-7.53-.82-10.77-2.45s-6.05-3.81-8.44-6.53c-2.38-2.72-4.24-5.78-5.56-9.17-1.32-3.39-1.98-6.83-1.98-10.3Z"/>
      <path class="cls-2" d="M849.93,231.36h-17.57v45.79h-10.65v-45.79h-17.73v-9.41h45.95v9.41Z"/>
      <path class="cls-2" d="M874.96,277.54c-4.35,0-8.07-.74-11.16-2.22-3.08-1.48-5.57-3.51-7.46-6.1-1.89-2.59-3.28-5.53-4.16-8.82-.88-3.29-1.32-6.72-1.32-10.3v-28.14h10.65v28.14c0,2.28.25,4.5.74,6.65.49,2.15,1.24,4.08,2.25,5.79,1.01,1.71,2.37,3.06,4.08,4.04,1.71.98,3.83,1.48,6.38,1.48s4.81-.5,6.49-1.52c1.68-1.01,3.04-2.37,4.08-4.08,1.04-1.71,1.79-3.64,2.25-5.79.47-2.15.7-4.34.7-6.57v-28.14h10.65v28.14c0,3.73-.47,7.27-1.4,10.61-.93,3.34-2.36,6.27-4.28,8.79-1.92,2.51-4.41,4.48-7.46,5.91-3.06,1.43-6.74,2.14-11.04,2.14Z"/>
      <path class="cls-2" d="M989.56,267.74v9.41h-38.33v-55.2h37.63v9.41h-26.9v13.29h21.17l2,8.71h-23.17v14.38h27.6Z"/>
      <polygon class="cls-2" points="491.98 221.95 481.1 221.95 460.73 277.15 471.77 277.15 476.38 263.39 491.9 263.39 489.67 255.85 478.91 255.85 486.54 233.07 494.13 255.85 494.13 255.85 496.64 263.39 496.65 263.39 501.23 277.15 512.27 277.15 491.98 221.95"/>
      <path class="cls-2" d="M545.16,256.39c2.02-.88,3.78-2.14,5.29-3.77,1.5-1.63,2.65-3.51,3.46-5.64.8-2.12,1.21-4.35,1.21-6.69s-.43-4.51-1.28-6.69-2.07-4.15-3.65-5.91c-1.58-1.76-3.45-3.16-5.6-4.2-2.15-1.04-4.47-1.55-6.96-1.55h-24.49v55.2h10.73v-17.76h-.01s0-11.43,0-11.43h.01s0-16.6,0-16.6h13.06c1.29,0,2.49.39,3.58,1.17,1.09.78,2,1.84,2.72,3.19.72,1.35,1.09,2.88,1.09,4.59s-.31,3.16-.93,4.51c-.62,1.35-1.45,2.42-2.49,3.23-1.04.8-2.23,1.21-3.58,1.21h-7.17l-3.59,9.41h8.05l11.35,18.5h11.82l-12.59-20.76Z"/>
      <path class="cls-2" d="M936.77,256.39c2.02-.88,3.78-2.14,5.29-3.77,1.5-1.63,2.66-3.51,3.46-5.64.8-2.12,1.21-4.35,1.21-6.69s-.43-4.51-1.28-6.69-2.07-4.15-3.65-5.91c-1.58-1.76-3.45-3.16-5.6-4.2-2.15-1.04-4.47-1.55-6.96-1.55h-24.49v55.2h10.73v-18.5h.04v-9.41h-.04v-17.88h13.06c1.29,0,2.49.39,3.58,1.17,1.09.78,2,1.84,2.72,3.19.72,1.35,1.09,2.88,1.09,4.59s-.31,3.16-.93,4.51c-.62,1.35-1.45,2.42-2.49,3.23-1.04.8-2.23,1.21-3.58,1.21h-7.13l-3.59,9.41h8l11.35,18.5h11.82l-12.59-20.76Z"/>
    </g>
    <rect class="cls-2" x="382.44" y="246.4" width="59.47" height="6"/>
    <rect class="cls-2" x="1004.87" y="246.4" width="59.47" height="6"/>
  </g>
</svg>