<?xml version="1.0" encoding="UTF-8"?>
<svg id="Layer_1" data-name="Layer 1" xmlns="http://www.w3.org/2000/svg" viewBox="0 0 536.79 128.75">
  <defs>
    <style>
      .cls-1, .cls-2 {
        fill-rule: evenodd;
      }

      .cls-1, .cls-3 {
        fill: #fff;
      }

      .cls-4, .cls-2 {
        fill: #54b56e;
      }
    </style>
  </defs>
  <g>
    <polygon class="cls-2" points="84.97 79.85 33.49 48.55 33.49 92.05 84.97 123.35 136.46 92.05 136.46 48.55 84.97 79.85"/>
    <polygon class="cls-1" points="111.95 28.33 89.89 41.06 114.43 55.23 136.46 41.84 113.2 27.63 111.95 28.33"/>
    <polygon class="cls-1" points="109.65 58.14 84.98 43.9 60.3 58.15 84.97 73.14 109.65 58.14"/>
    <polygon class="cls-2" points="55.51 55.23 80.05 41.06 58.01 28.33 56.78 27.61 33.49 41.84 55.51 55.23"/>
    <polygon class="cls-2" points="61.63 24.75 84.96 38.22 108.31 24.74 84.97 10.55 61.63 24.75"/>
    <polygon class="cls-1" points="84.97 79.85 84.97 123.35 136.46 92.05 136.46 48.55 84.97 79.85"/>
    <polygon class="cls-1" points="139.84 30.56 132.68 34.69 140.65 39.3 147.79 34.95 140.24 30.33 139.84 30.56"/>
    <polygon class="cls-2" points="77.22 6.05 73.64 8.11 77.62 10.42 81.19 8.24 77.42 5.94 77.22 6.05"/>
    <polygon class="cls-2" points="120.54 22.93 116.95 25 120.94 27.29 124.52 25.12 120.74 22.82 120.54 22.93"/>
    <polygon class="cls-2" points="57.81 13.24 50.65 17.37 58.62 21.96 65.77 17.62 58.22 13.01 57.81 13.24"/>
  </g>
  <g>
    <path class="cls-3" d="M172.1,86.28v28.88h-9.09v-61.59c0-7.65.04-13-.18-16.47h8.97c.15,1.91.26,5.91.3,9.02,2.73-5.7,8.21-10.12,17.42-10.12,12.15,0,20.86,9.64,20.86,28.15s-10.01,29.78-23.12,29.78c-8.09,0-12.75-3.24-15.16-7.65ZM200.97,64.44c0-13.44-5.41-20.55-14.37-20.55-11.48,0-14.91,7.9-14.91,21.35,0,12.33,2.36,20.88,14.33,20.88,9.39,0,14.95-7.8,14.95-21.68Z"/>
    <path class="cls-3" d="M261.66,80.6c0,3.86.36,9.46.84,12.4h-8.31c-.37-1.94-.77-4.97-.81-8.64-2.14,5.62-7.79,9.63-16.9,9.63-13.65,0-17.84-9.21-17.84-16.96,0-8.42,5.43-17.75,25.45-17.75h8.56v-5.42c0-5.3-1.5-10.78-10.99-10.78-8.14,0-10.95,3.74-11.89,9.9h-8.93c.84-9.36,6.24-16.99,21.11-16.99,11.68,0,19.7,4.7,19.7,17.44v27.17ZM252.92,65.91h-8.85c-13.54,0-16.09,5.5-16.09,10.59,0,5.45,3.31,9.96,10.34,9.96,10.98,0,14.6-7.4,14.6-19.41v-1.14Z"/>
    <path class="cls-3" d="M320.12,75.18c-2.25,10.94-9.18,18.9-22.48,18.9-15.72,0-23.64-10.42-23.64-29.12,0-16.1,8.12-28.95,24.2-28.95,14.89,0,21.05,10.27,21.84,19.51h-9.23c-1.08-6.35-4.6-12.01-12.8-12.01-10.16,0-14.6,8.9-14.6,21.28,0,14.33,5.17,21.81,14.48,21.81,7.74,0,11.07-4.79,13.03-11.43h9.19Z"/>
    <path class="cls-3" d="M340.59,63.21c5.14-5.71,16.38-18.14,23.07-26.11h10.65c-6.19,7.04-13,14.11-19.53,21.31,6.78,10.68,14.85,23.77,21.71,34.59h-10.62c-4.49-7.41-12.26-20.32-17.22-28.42-1.5,1.64-6.49,6.58-8.06,8.15v20.27h-9.12V12.72h9.12v50.5Z"/>
    <path class="cls-3" d="M424.15,80.6c0,3.86.36,9.46.84,12.4h-8.31c-.37-1.94-.77-4.97-.81-8.64-2.14,5.62-7.79,9.63-16.9,9.63-13.65,0-17.84-9.21-17.84-16.96,0-8.42,5.43-17.75,25.45-17.75h8.56v-5.42c0-5.3-1.5-10.78-10.99-10.78-8.14,0-10.95,3.74-11.89,9.9h-8.93c.84-9.36,6.24-16.99,21.11-16.99,11.68,0,19.7,4.7,19.7,17.44v27.17ZM415.41,65.91h-8.85c-13.54,0-16.09,5.5-16.09,10.59,0,5.45,3.31,9.96,10.34,9.96,10.98,0,14.6-7.4,14.6-19.41v-1.14Z"/>
    <path class="cls-3" d="M483.47,88.76c0,17.43-6.99,27.28-23.97,27.28s-21.27-8.76-22.07-16.72h9.05c1.24,6.22,6.25,9.24,13.38,9.24,11.99,0,14.72-7.85,14.72-20.05v-4.59c-2.87,6.25-7.78,9.19-16.42,9.19-13.14,0-21.65-10.98-21.65-28.3s10.07-28.82,22.93-28.82c8.83,0,13.42,3.62,14.88,7.95,0-2.38.3-5.57.45-6.84h8.93c-.11,2.65-.22,8.59-.22,16.21v35.45ZM446,64.71c0,12.97,5.5,20.46,14.36,20.46,10.68,0,14.44-6.66,14.44-20.71s-3.1-20.49-13.96-20.49c-9.27,0-14.84,7.75-14.84,20.74Z"/>
    <path class="cls-4" d="M499.47,56.08c0-8.91-.07-16.21-.22-18.98h8.97c.19,2.64.23,6.21.23,11.34,2.62-6.93,8.78-12.22,18.08-12.36v9.52c-12.57.45-17.94,7.85-17.94,19.91v27.5h-9.12v-36.93Z"/>
  </g>
</svg>