<?xml version="1.0" encoding="UTF-8"?>
<svg id="Layer_1" data-name="Layer 1" xmlns="http://www.w3.org/2000/svg" viewBox="0 0 1699.15 385.38">
  <defs>
    <style>
      .cls-1 {
        letter-spacing: .1em;
      }

      .cls-1, .cls-2 {
        fill: #032f56;
      }

      .cls-1, .cls-3 {
        font-family: Arial-BoldMT, Arial;
        font-size: 203.88px;
        font-weight: 700;
      }

      .cls-4, .cls-3 {
        fill: #c63c3c;
      }

      .cls-3 {
        letter-spacing: .1em;
      }
    </style>
  </defs>
  <text class="cls-3" transform="translate(411.97 274.48)"><tspan x="0" y="0">RICH</tspan></text>
  <text class="cls-1" transform="translate(1029 274.48)"><tspan x="0" y="0">BANK</tspan></text>
  <path class="cls-2" d="M121.55,143.05L242.99,21.61l24.62,24.62-119.52,119.52h0c-.21.21-.4.42-.6.63l-49.39,49.39c-3.3-25.69,4.51-52.56,23.48-72.7l-.03-.03ZM137.81,228.49c-.04-.07-.08-.15-.11-.22l-25.46,25.46c3.22,4.85,6.96,9.45,11.24,13.72,4.22,4.22,8.76,7.92,13.54,11.11l25.44-25.44s-.02,0-.02-.01l88.69-88.69-24.62-24.62-88.68,88.68ZM225.16,242.83c-1.18,1.18-2.41,2.29-3.67,3.34l-46.61,46.61c25.78,3.39,52.76-4.41,72.97-23.45l.03.03,26.88-26.88-24.62-24.62-24.97,24.97h0Z"/>
  <path class="cls-4" d="M299.45,91.48c-4.17-4.17-8.51-8.04-13.01-11.65l-24.81,24.81s.01,0,.02.01l-10.26,10.26,24.62,24.62,10.26-10.26c36.82,48.83,33.01,118.77-11.45,163.22-48.63,48.63-127.76,48.63-176.39,0-48.63-48.63-48.63-127.76,0-176.4,2.57-2.57,5.24-4.99,7.97-7.29l63.03-63.04c-34.95,3.75-68.9,18.97-95.63,45.71-62.21,62.21-62.21,163.43,0,225.64,62.21,62.21,163.43,62.21,225.64,0,62.21-62.21,62.21-163.43,0-225.64Z"/>
</svg>