<?xml version="1.0" encoding="UTF-8"?>
<svg id="Layer_1" xmlns="http://www.w3.org/2000/svg" version="1.1" viewBox="0 0 512 512">
  <!-- Generator: Adobe Illustrator 29.3.1, SVG Export Plug-In . SVG Version: 2.1.0 Build 151)  -->
  <defs>
    <style>
      .st0 {
        fill: #86aa2e;
      }

      .st1 {
        fill: #032f56;
      }
    </style>
  </defs>
  <path class="st1" d="M162.3,184.5L337.2,9.6l35.5,35.5-172.1,172.1h0c-.3.3-.6.6-.9.9l-71.1,71.1c-4.8-37,6.5-75.7,33.8-104.7h0s0,0,0,0ZM185.7,307.6c0-.1-.1-.2-.2-.3l-36.7,36.7c4.6,7,10,13.6,16.2,19.8,6.1,6.1,12.6,11.4,19.5,16l36.6-36.6s0,0,0,0l127.7-127.7-35.5-35.5-127.7,127.7h0ZM311.5,328.2c-1.7,1.7-3.5,3.3-5.3,4.8l-67.1,67.1c37.1,4.9,76-6.4,105.1-33.8h0s38.7-38.7,38.7-38.7l-35.5-35.5-36,36h0Z"/>
  <path class="st0" d="M418.5,110.2c-6-6-12.3-11.6-18.7-16.8l-35.7,35.7s0,0,0,0l-14.8,14.8,35.5,35.5,14.8-14.8c53,70.3,47.5,171.1-16.5,235.1-70,70-184,70-254.1,0-70-70-70-184,0-254.1,3.7-3.7,7.5-7.2,11.5-10.5l90.8-90.8c-50.3,5.4-99.2,27.3-137.7,65.8C3.9,199.8,3.9,345.6,93.5,435.2c89.6,89.6,235.4,89.6,325,0,89.6-89.6,89.6-235.4,0-325h0Z"/>
</svg>