<?xml version="1.0" encoding="UTF-8"?>
<svg id="Layer_1" data-name="Layer 1" xmlns="http://www.w3.org/2000/svg" viewBox="0 0 1699.15 385.38">
  <defs>
    <style>
      .cls-1 {
        fill: #73bfa1;
      }

      .cls-2 {
        fill: #fff;
      }
    </style>
  </defs>
  <g>
    <path class="cls-1" d="M426.9,274.48v-145.94h62.02c15.6,0,26.93,1.31,34,3.93,7.07,2.62,12.73,7.28,16.97,13.99,4.25,6.7,6.37,14.37,6.37,23,0,10.95-3.22,19.99-9.66,27.13-6.44,7.14-16.06,11.63-28.87,13.49,6.37,3.72,11.63,7.8,15.78,12.25,4.15,4.45,9.74,12.34,16.77,23.69l17.82,28.47h-35.24l-21.3-31.76c-7.57-11.35-12.74-18.5-15.53-21.45-2.79-2.95-5.74-4.98-8.86-6.07-3.12-1.09-8.06-1.64-14.83-1.64h-5.97v60.93h-29.47ZM456.37,190.26h21.8c14.14,0,22.96-.6,26.48-1.79,3.52-1.19,6.27-3.25,8.26-6.17,1.99-2.92,2.99-6.57,2.99-10.95,0-4.91-1.31-8.88-3.93-11.9-2.62-3.02-6.32-4.93-11.1-5.72-2.39-.33-9.56-.5-21.5-.5h-23v37.03Z"/>
    <path class="cls-1" d="M593.53,274.48v-145.94h29.47v145.94h-29.47Z"/>
    <path class="cls-1" d="M764.85,220.83l28.57,9.06c-4.38,15.93-11.66,27.76-21.85,35.49-10.19,7.73-23.11,11.6-38.78,11.6-19.38,0-35.31-6.62-47.79-19.86-12.48-13.24-18.72-31.34-18.72-54.31,0-24.29,6.27-43.16,18.82-56.6,12.54-13.44,29.04-20.16,49.48-20.16,17.85,0,32.35,5.28,43.5,15.83,6.64,6.24,11.61,15.2,14.93,26.88l-29.17,6.97c-1.73-7.57-5.33-13.54-10.8-17.92-5.48-4.38-12.13-6.57-19.96-6.57-10.82,0-19.6,3.88-26.33,11.65-6.74,7.77-10.1,20.34-10.1,37.73,0,18.45,3.32,31.59,9.96,39.42,6.64,7.83,15.26,11.75,25.88,11.75,7.83,0,14.57-2.49,20.21-7.47,5.64-4.98,9.69-12.81,12.15-23.49Z"/>
    <path class="cls-1" d="M839.19,274.48v-145.94h29.47v57.44h57.74v-57.44h29.47v145.94h-29.47v-63.81h-57.74v63.81h-29.47Z"/>
  </g>
  <g>
    <path class="cls-2" d="M1043.93,128.54h58.34c11.55,0,20.16.48,25.83,1.44,5.67.96,10.75,2.97,15.23,6.02,4.48,3.05,8.21,7.12,11.2,12.2,2.99,5.08,4.48,10.77,4.48,17.07,0,6.84-1.84,13.11-5.53,18.82-3.68,5.71-8.68,9.99-14.98,12.84,8.89,2.59,15.73,7,20.51,13.24,4.78,6.24,7.17,13.57,7.17,22,0,6.64-1.54,13.09-4.63,19.36-3.09,6.27-7.3,11.28-12.64,15.03-5.34,3.75-11.93,6.06-19.76,6.92-4.91.53-16.76.86-35.54,1h-49.68v-145.94ZM1073.4,152.83v33.75h19.31c11.48,0,18.62-.17,21.4-.5,5.04-.6,9.01-2.34,11.9-5.23,2.89-2.89,4.33-6.69,4.33-11.4s-1.24-8.18-3.73-11c-2.49-2.82-6.19-4.53-11.1-5.13-2.92-.33-11.32-.5-25.19-.5h-16.92ZM1073.4,210.87v39.02h27.28c10.62,0,17.35-.3,20.21-.9,4.38-.8,7.95-2.74,10.7-5.82,2.75-3.09,4.13-7.22,4.13-12.39,0-4.38-1.06-8.1-3.19-11.15-2.12-3.05-5.19-5.28-9.21-6.67-4.02-1.39-12.73-2.09-26.13-2.09h-23.79Z"/>
    <path class="cls-2" d="M1343.06,274.48h-32.06l-12.74-33.15h-58.34l-12.05,33.15h-31.26l56.84-145.94h31.16l58.44,145.94ZM1288.81,216.74l-20.11-54.16-19.71,54.16h39.82Z"/>
    <path class="cls-2" d="M1379.38,274.48v-145.94h28.67l59.73,97.46v-97.46h27.38v145.94h-29.57l-58.84-95.17v95.17h-27.38Z"/>
    <path class="cls-2" d="M1547.11,274.48v-145.94h29.47v64.81l59.53-64.81h39.62l-54.95,56.84,57.94,89.1h-38.13l-40.12-68.49-23.89,24.39v44.1h-29.47Z"/>
  </g>
  <path class="cls-2" d="M121.55,143.05L242.99,21.61l24.62,24.62-119.52,119.52h0c-.21.21-.4.42-.6.63l-49.39,49.39c-3.3-25.69,4.51-52.56,23.48-72.7l-.03-.03ZM137.81,228.49c-.04-.07-.08-.15-.11-.22l-25.46,25.46c3.22,4.85,6.96,9.45,11.24,13.72,4.22,4.22,8.76,7.92,13.54,11.11l25.44-25.44s-.02,0-.02-.01l88.69-88.69-24.62-24.62-88.68,88.68ZM225.16,242.83c-1.18,1.18-2.41,2.29-3.67,3.34l-46.61,46.61c25.78,3.39,52.76-4.41,72.97-23.45l.03.03,26.88-26.88-24.62-24.62-24.97,24.97h0Z"/>
  <path class="cls-1" d="M299.45,91.48c-4.17-4.17-8.51-8.04-13.01-11.65l-24.81,24.81s.01,0,.02.01l-10.26,10.26,24.62,24.62,10.26-10.26c36.82,48.83,33.01,118.77-11.45,163.22-48.63,48.63-127.76,48.63-176.39,0-48.63-48.63-48.63-127.76,0-176.4,2.57-2.57,5.24-4.99,7.97-7.29l63.03-63.04c-34.95,3.75-68.9,18.97-95.63,45.71-62.21,62.21-62.21,163.43,0,225.64,62.21,62.21,163.43,62.21,225.64,0,62.21-62.21,62.21-163.43,0-225.64Z"/>
</svg>