<?xml version="1.0" encoding="UTF-8"?>
<svg id="Layer_1" xmlns="http://www.w3.org/2000/svg" xmlns:svg="http://www.w3.org/2000/svg" xmlns:sodipodi="http://sodipodi.sourceforge.net/DTD/sodipodi-0.dtd" xmlns:inkscape="http://www.inkscape.org/namespaces/inkscape" version="1.1" viewBox="0 0 250 43.9">
  <!-- Generator: Adobe Illustrator 30.0.0, SVG Export Plug-In . SVG Version: 2.1.1 Build 123)  -->
  <defs>
    <style>
      .st0 {
        fill: #fff;
      }
    </style>
  </defs>
  <sodipodi:namedview id="namedview10" bordercolor="#000000" borderopacity="0.25" inkscape:current-layer="Layer_1" inkscape:cx="147.1066" inkscape:cy="6.7614213" inkscape:deskcolor="#d1d1d1" inkscape:pagecheckerboard="0" inkscape:pageopacity="0.0" inkscape:showpageshadow="2" inkscape:window-height="1001" inkscape:window-maximized="1" inkscape:window-width="1920" inkscape:window-x="-9" inkscape:window-y="-9" inkscape:zoom="2.7361111" pagecolor="#ffffff"/>
  <path id="path1" class="st0" d="M113.1,43.3v-.8h5.2V.9h-5.2V0h16v.8h-5.2v41.6h5.3v.8h-16Z"/>
  <path id="path2" class="st0" d="M40.1,11.7c.8,0,1.5-.3,2.1-.9s.9-1.3.9-2.1-.3-1.5-.9-2.1c-.6-.6-1.3-.9-2.1-.9s-1.5.3-2.1.9c-.6.6-.9,1.3-.9,2.1s.3,1.5.9,2.1,1.3.9,2.1.9h0Z"/>
  <path id="path3" class="st0" d="M46.5,43.3v-.8h-3.8v-24.9h3.1l10.1,25.8h1.1l11.4-25.8h3.3v-.9h-9.9v.9h5.6l-8.5,19.3-7.4-19.3h4.9v-.8h-22.7v.9h3.8v24.9h-3.2c-1.2,0-2.2-.4-2.5-1.6h0c-.6-2.1-.4-4.7-.5-6.8,0-1.5-.2-3-.5-4.5-.4-2.1-1.4-4.1-3-5.5-1.9-1.5-4.9-2.4-7.3-2.7-.2,0-.4,0-.5,0,1.4-.1,2.2-.4,3.7-.8,4.7-1.5,7.4-6.3,6.1-11.3-1.6-5.6-7.2-8.1-12.7-8.1H0v.8h5.2v40.6H0v.8h16v-.8h-5.3v-20.8h6.6c.9,0,1.7,0,2.5.3,1.1.3,2.1.5,2.9,1.3,1.4,1.4,2,3.6,2.2,5.5.1,1.3.2,2.6.2,4,0,1.4,0,2.7.2,4,.2,2.2,1.1,5.2,3.8,6,1.9.6,2.1.5,5.1.5h12.1,0ZM18.2,20.9h-7.5V1.9h5c3.3,0,5.9,1.3,7.2,5.1.7,2.1,1,4.3,1,6.6,0,1.7-.2,3.4-1,4.9-1,1.9-2.7,2.2-4.6,2.3h0Z"/>
  <path id="path4" class="st0" d="M92.6,35.5c-1.1,2.6-2,4.1-3.6,5.4-1.6,1.2-3,1.6-5,1.8-2.1.2-4.3,0-5.9-1.4-.8-.7-1.4-1.5-1.8-2.5-.6-1.2-.9-2.5-1.2-4s-.3-3.1-.3-4.8,0-1.3,0-2h18.2c0-2.1-.4-4-1.1-5.8s-1.9-3.3-3.6-4.4c-1.7-1.1-3.9-1.7-6.7-1.7s-4.7.5-6.6,1.6-3.4,2.7-4.5,4.8-1.7,4.6-1.7,7.4.6,5.4,1.8,7.4,2.7,3.7,4.7,4.8,4.2,1.7,6.7,1.7,5.7-.8,7.5-2.3,2.9-3.3,4-5.8l-.8-.3ZM74.9,25.3c.4-3.4,2.1-7.8,6.2-8.2,4.2-.5,6.9,2.7,7.6,6.6.2,1.1.3,2.7.3,3.6h-14.3c0-.9.1-1.1.2-2Z"/>
  <path id="path5" class="st0" d="M114,20.6c0,.5-.3.9-.7,1.4-1,1-3,1-3.7-.3-.5-.9-.4-2-.3-3,.3-2.3-2.3-1.2-3.4-.5,0,0-.1,0-.2.1-1,.8-2.2,2.4-2.8,3.8-.6,1.4-1,2.8-1.4,4.4,0,.2,0,.4-.1.6l-.4,15.4h4.1v.8h-12.9v-.8h3.8v-24.9h-3.8v-.9h8.8v8.3c.3-1.5.8-2.8,1.5-4,.7-1.5,1.6-2.6,2.7-3.5,1.1-.9,2.4-1.3,3.9-1.3s2,.2,2.7.6,1.3.9,1.7,1.6c.1.2.2.2.3.5,0,0,.4.9.3,1.7h0Z"/>
  <path id="path6" class="st0" d="M149.5,31.2c-.8-1-1.8-1.9-3-2.6s-2.5-1.2-3.9-1.7c-1.4-.5-2.7-1-3.9-1.4-1.2-.5-2.2-1.1-3-1.7s-1.2-1.5-1.2-2.6.2-1.9.7-2.5,1.1-1.1,1.8-1.4c.8-.3,1.6-.5,2.5-.5,1.6,0,3,.3,4.3,1s2.4,1.5,3.2,2.5,1.3,2.6,1.4,3.8h.9v-8.1h-.9c-1.2,1.3-3.2,1.6-4.7.9-.2,0-.4-.1-.5-.2-1.1-.4-2.3-.7-3.6-.7s-3.4.4-4.5,1.1c-1.2.8-2,1.7-2.6,2.9-.6,1.2-.9,2.4-.9,3.6s.4,3.1,1.1,4.1,1.7,1.9,2.9,2.5c1.2.6,2.4,1.1,3.7,1.6,1.3.4,2.6.9,3.7,1.3,1.2.5,2.1,1,2.9,1.8.7.7,1.1,1.7,1.1,2.9s-.2,2.5-.9,3.4c-1.2,1.4-3.7,1.8-5.4,1.8s-2.8-.3-4-1-2.4-1.4-3.3-2.5c-.9-1.1-1.5-2.7-1.8-4.1h-.9v8h.9c1.2-1.3,3.5-1.2,5.2-.5.2.1.5.2.8.3,1.2.5,2.2.7,3.6.7s3.4-.4,4.9-1.1c1.4-.7,2.6-1.7,3.4-3s1.3-2.8,1.3-4.5-.4-2.9-1.2-4h0Z"/>
  <path id="path7" class="st0" d="M246.3,42.5V0h-8.9v.9h3.8v24.2c-.6-2.7-1.7-4.9-3.3-6.5s-3.5-2.4-5.9-2.4-3.9.5-5.7,1.6-3.3,2.7-4.4,4.7c-1.1,2.1-1.7,4.5-1.7,7.4s.6,5.3,1.7,7.4,2.6,3.6,4.4,4.7c1.8,1.1,3.7,1.6,5.7,1.6s4.3-.8,5.9-2.4c1.6-1.6,2.7-3.8,3.3-6.5v8.7h8.9v-.9h-3.7s0,0,0,0ZM239.8,36.5c-.8,1.8-1.8,3.2-3,4.2-1.2,1-2.8,1.4-4.2,1.4s-2.3-.5-3.4-1.5-1.8-2.4-2.3-4.2-.8-4-.8-6.6.3-4.8.8-6.6,1.3-3.2,2.3-4.2,2.3-1.5,3.8-1.5,2.6.5,3.9,1.5c1.2,1,2.2,2.4,3,4.2.8,1.8.7,4,.7,6.6s0,4.8-.8,6.6h0Z"/>
  <path id="path8" class="st0" d="M175.8,16.9h0c1.4,0,2.8.2,3.8,1.3.7.8,1.2,2.3,1.5,3.5.2,1.3.4,2.6.4,4v2.3l-3.9.3c-4.1.5-7.3.9-9.5,2.3-2.2,1.5-3.3,3.5-3.3,6.1s.7,3.9,2.2,5.2c1.5,1.3,3.5,1.9,6,1.9s3.6-.3,5-1.2,2.4-2.2,3.1-3.9c.1-.3.3-.7.4-1.1v1.2c0,1.2.2,2.2.7,3,.5.7,1.1,1.4,2.8,1.5,1.3,0,2.1,0,3.3,0,2.1,0,1.7,0,2.5-.8h-1.6c-.7,0-1.9,0-2.4-.6-.3-.4-.3-1.3-.3-1.9v-14.2c0-1.6-.2-3.1-.7-4.5s-1.3-2.6-2.6-3.5c-.8-.5-1.6-.8-2.5-1.1-1.1-.3-2.3-.5-3.5-.5-2,0-4,.2-5.9,1-1.5.6-2.9,1.5-3.8,2.8-.6.8-.9,1.8-1.1,2.7-.2,1.3.8,2.4,2.1,2.4s2.1-.8,2.1-2.2-.4-1.7-.4-2.8c0-2.5,3.4-3.1,5.4-3.1h0ZM181.4,35.2c-.2,1.1-.4,2-.8,2.8-.8,1.7-1.9,3.5-3.7,4.4-1.4.7-2.9.7-4.2-.3-1-.7-1.5-1.8-1.9-2.9-.3-.9-.4-1.8-.4-2.8s.2-2.1.7-3.2c1.6-3.4,5.2-3.9,8.6-4.2.6,0,1.1-.1,1.7-.1v6.3h0Z"/>
  <path id="path9" class="st0" d="M159.9,0v42.5h4.9v.8h-15v-.8h4.9V.9h-4.9V0h10.1Z"/>
  <path id="path10" class="st0" d="M198.3,16.6v25.9h3.7v.8h-13.1l.5-.8h3.8v-25h-3.8v-.9h8.8ZM219.7,42.5v.8h-12.6v-.8h3.8v-16.7c0-1.8,0-3.7-.4-5.4-.8-3.3-4.7-3.6-7.1-1.8-1.1.9-2.1,2.3-2.8,3.6s-1.3,2.7-1.6,4.2c-.4,1.5-.5,2.8-.5,4.1h-.7c0-1.1.2-2.6.5-4.2.3-1.6.9-3.2,1.7-4.7.8-1.5,1.9-2.8,3.2-3.8,2.2-1.6,5.4-1.9,7.9-1.2,1.7.5,3.1,1.6,3.9,3.1,1,1.8,1.1,4.1,1.2,6.2.1,4,.2,7.9.1,11.9v4.9h3.5Z"/>
</svg>